<?xml version="1.0" encoding="utf-8"?>
<!-- Generator: Adobe Illustrator 24.3.0, SVG Export Plug-In . SVG Version: 6.00 Build 0)  -->
<svg version="1.1" xmlns="http://www.w3.org/2000/svg" xmlns:xlink="http://www.w3.org/1999/xlink" x="0px" y="0px"
	 viewBox="0 0 612 526.4" style="enable-background:new 0 0 612 526.4;" xml:space="preserve">
<style type="text/css">
	.st0{fill:#F7BC28;}
	.st1{fill:#FFC9A0;}
	.st2{fill:#307549;}
	.st3{clip-path:url(#SVGID_2_);}
	.st4{fill:#153A23;}
	.st5{fill:#39B55D;}
	.st6{clip-path:url(#SVGID_4_);}
	.st7{fill:#32142A;}
	.st8{fill:#E48929;}
	.st9{fill:#122D1C;}
	.st10{fill:#EFB086;}
	.st11{clip-path:url(#SVGID_6_);}
	.st12{fill:#227B3D;}
	.st13{clip-path:url(#SVGID_8_);}
	.st14{fill:#BBD1CE;}
	.st15{clip-path:url(#SVGID_10_);}
	.st16{fill:#FFFFFF;}

	#bubble {
		animation-name: organic;
		animation-duration: 20s;
		animation-iteration-count: infinite;
		animation-timing-function: linear;
		transform-origin: center;
	}

	@keyframes organic {
		0% {
		transform:scale(.95, .95) rotate(0deg);
		}
		20% {
			transform:scale(.95, .9) rotate(-15deg);
		}
		40% {
			transform:scale(.9, .85) rotate(0deg);
		}
		60% {
			transform:scale(.95, .9) rotate(-5deg);
		}
		80% {
			transform:scale(.92, .92) rotate(10deg);
		}
		100% {
			transform:scale(.95, .95) rotate(0deg);
		}
	}

	#star1, #star2, #star3 {
		animation-timing-function: ease-in-out;
		animation-iteration-count: infinite;
		animation-direction: alternate;
	}

	#star1 {
    animation-name: star1;
    animation-duration: 2.75s;
	}

	#star2 {
    animation-name: star1;
    animation-duration: 1.5s;
	}

	#star3 {
    animation-name: star1;
    animation-duration: 2.5s;
	}

	@keyframes star1 {
    0 {
      opacity: 0;
      width: 50px;
    }
		15% {
      opacity: .25;
    }
		50% {
			opacity: 1;
		}
		85% {
      opacity: .25;
    }
    100% {
        opacity: 0;
        width: 35px;
    }
  }

	@keyframes star2 {
    0 {
      opacity: 1;
      width: 35px;
    }
		50% {
			opacity: 0;
			width: 75px;
		}
    100% {
        opacity: 1;
        width: 35px;
    }
  }

</style>
<g id="Layer_1">
	<g id="bubble">
		<path class="st0" d="M460.9,79.1c132.9,118.1,153.4,218.4,147,253.8C579.5,491.1,455.1,520,417.9,522.1
			c-49.2,2.7-128.2-0.9-180.2,0.5c-142.3,8.1-200-71.8-211-112.7c-68-167.4,27.3-296.3,83.5-339.8C254.5-55.2,404.2,23.9,460.9,79.1
			z"/>
	</g>
	<g id="characters">
		<path class="st1" d="M231.9,206.3c7-15.3,15.7-29.7,24.3-44.1l72-119.5c6.5-10.7,16.5-23,28.1-22c1.6,0.2,2.9,1.6,2.7,3.3
			c0,0.2-0.1,0.4-0.1,0.7c-5.8,17-15.5,32.5-28.2,45.2c-3,2.9-6.5,4.9-7,6.4c-0.3,1-4.2,11.8-5.6,16.3
			c-16.4,50.8-31.9,92.2-39.3,109.9"/>
		<path class="st2" d="M285.7,194.4c-8.1,24.5-10.7,37.4-23.3,44.4l-66.7,25.1c10.8-20.6,24.3-49.2,36.8-68.8L285.7,194.4z"/>
		<g>
			<defs>
				<path id="SVGID_1_" d="M285.7,194.4c-8.1,24.5-10.7,37.4-23.3,44.4l-66.7,25.1c10.8-20.6,24.3-49.2,36.8-68.8L285.7,194.4z"/>
			</defs>
			<clipPath id="SVGID_2_">
				<use xlink:href="#SVGID_1_"  style="overflow:visible;"/>
			</clipPath>
			<g class="st3">
				<path class="st4" d="M221.2,207.7c21.5-0.8,43-0.5,64.4,1c1.6,0,3-1.4,3-3c-0.1-1.6-1.4-2.9-3-3c-21.4-1.5-42.9-1.8-64.4-1
					C217.3,201.8,217.3,207.9,221.2,207.7L221.2,207.7z"/>
				<path class="st4" d="M228.2,252.7c-3.1-13.7-2.7-31.5,6.8-46.5c2.1-3.3-1.2-5.5-3-2.1c-8.2,15.5-12.9,18.4-13.1,50.4
					c0,3.9,4.1,3.7,4-0.2L228.2,252.7z"/>
				<path class="st4" d="M240.9,245.2c5-13.1,9.8-27.1,15.6-39.9c0.7-1.5,1-2.1-0.6-3.1c-1.5-0.8-3.3-0.3-4.2,1.1
					c-8.1,14.6-9.8,34.8-16.7,40.3c-1.3,1,0.6,3.3,2.1,3.8C238.7,247.7,240.4,246.8,240.9,245.2z"/>
				<path class="st4" d="M251.2,246.5c2-2.9,5.2-4.7,7.8-6.9c2.9-2.4,1.5-6.1,4-8.9c4.4-4.8,8.5-10.5,12.2-22.8
					c1.1-3.8-6.4-5.5-7.1-1.6c-2.1,11.5-4.2,15-7.8,21.8c-1.6,3.1-3.9,5.8-6.6,7.9c-2.9,2.3-5.7,4.3-7.8,7.4
					c-0.8,1.5-0.3,3.3,1.1,4.2C248.5,248.4,250.4,247.9,251.2,246.5L251.2,246.5z"/>
			</g>
		</g>
		<path class="st1" d="M199.4,307.3c-32.4,0.7-90.7-11-123.1-11.2c-20.4-0.2-34.5,4.7-60.7-11.3c-2.8-1.6-5.3-3.6-7.3-6.1
			c-1.2-1.6,0.3-4,2.1-3.3c18.2,7.8,40.1-4.6,58.7,2.9c13.6,5.5,89.7-0.9,133.5-10.6"/>
		<path class="st1" d="M525.1,148.3c-17.6,34.7-36.5,68.8-56.6,102.2c-12.8-13.5-16.7-16.5-32.6-31.4l1.3,74.7l27.3,15.5
			c5.3,3,10.9,6.1,17,5.9c12.9-0.4,20.5-14.4,25-26.5c15.3-41.2,26.9-89.8,34.5-133.1L525.1,148.3z"/>
		<path class="st1" d="M345.5,340.4c4.7,56.4,6.9,95.9,10.1,165.4c5.3-0.3,15.5,0.2,20.6,1.5c6.2-46.6,14.3-119.2,20.3-168
			L345.5,340.4z"/>
		<path class="st5" d="M202.1,256.4c48.3-23,100.1-43.8,151.6-58.4c-0.3,38.2-1.5,60.5-1.3,109.4c-47.3,0.3-94.5-2-141.5-6.8
			L202.1,256.4z"/>
		<path class="st4" d="M437.2,293.8c-9.1-5.2-21.9-13.9-33.2-20.6c-3.9,27.4-3.7,38.9-7.5,66.2c-15.7,0-35.3,0.9-51,1l-0.3-139.9
			c28.9-11.7,63.3-8.9,90.8,18.6L437.2,293.8z"/>
		<g>
			<defs>
				<path id="SVGID_3_" d="M205.2,254.7c48.2-23,98.3-42,149.6-56.7c-0.3,38.2-1.5,60.5-1.3,109.4c-47.3,0.3-94.5-2-141.5-6.8
					L205.2,254.7z"/>
			</defs>
			<clipPath id="SVGID_4_">
				<use xlink:href="#SVGID_3_"  style="overflow:visible;"/>
			</clipPath>
			<g class="st6">
				<path class="st4" d="M209.7,298.2c17.9,0.1,27.3-0.6,45.2,0.3c13,0.7,27.8,0.5,61.7,2.4c12.3,0.7,27.1,0.3,39.4,0.3
					c3.9,0,3.9-9.7,0-9.7c-20.8,0-41.6,3.3-62.4,2.7c-17.7-0.5-35.5-1.2-53.2-1.6c-10.3-0.3-20.5-0.4-30.8-0.5
					C205.8,292.1,205.7,298.2,209.7,298.2L209.7,298.2z"/>
				<path class="st4" d="M190.9,281.3c23.8,0.8,47.5-0.8,71.3-1.6c22.6-0.7,46.5,0.6,69-0.6c9.9-0.5,23.6-5.9,28.6-2.7
					c3.3,2.1,3.9-3.5,0-3.6c-16.5-0.8-39.9,0.8-59.3,1.7c-23.8,1.1-46.4,0.9-70.3,1.1c-13.1,0.1-26.2,0.1-39.3-0.3
					C187,275.1,187,281.2,190.9,281.3L190.9,281.3z"/>
				<path class="st4" d="M187.1,262.9c22.4,0.1,37.5,6,59.6,2.4c21.8-3.6,45-4.9,76.9-5.1c12.6-0.1,22.7-3.1,35.3-4.1
					c1.6-0.1,3-1.4,3-3.1c0-1.5-1.4-3.5-3-3c-6.2,1.6-32.6,6.2-67.1,4.4c-22.3-1.1-53.8,4.6-76.1,5c-12.6,0.2-16-2.5-28.6-2.6
					C183.2,256.9,183.2,262.9,187.1,262.9L187.1,262.9z"/>
				<path class="st4" d="M211.5,242.7c38.3-1.4,73.3,0.1,111.6-2.1c10.9-0.6,25-4.1,35.9-4.9c1.7,0,3-1.4,3-3.1c0-1.7-1.4-3-3-3
					c-38.2,2.6-72.2,7.4-114.9,5.7c-10.9-0.4-21.8,0.8-32.7,1.2C207.6,236.8,207.5,242.9,211.5,242.7L211.5,242.7z"/>
				<path class="st4" d="M271.6,218.8c26.1,0.1,52.3-0.6,78.4-2.1c7.3-0.4,14.7-0.9,22-1.5c1.7,0,3-1.4,3-3c0-1.7-1.4-3-3-3.1
					c-26.1,2-52.2,3.2-78.3,3.5c-7.4,0.1-14.7,0.1-22.1,0.1C267.6,212.8,267.6,218.8,271.6,218.8L271.6,218.8z"/>
			</g>
		</g>
		<path class="st7" d="M57.9,187c-2.8,1-5.2,2.7-6.9,5.1c-3.9,5.2-3.8,16.2,3.3,19.5c4.4,2.1,12.5,2.9,16.2-0.3
			c3.1-2.5,5.5-5.8,6.9-9.6"/>
		<path class="st8" d="M88.7,229.6l13,8.1c0.4,0.2,0.8,0.5,1.1,0.9c0.3,0.5,0.4,1.1,0.4,1.7l0.5,17.1c0.1,0.6,0,1.3-0.4,1.8
			c-0.3,0.3-0.8,0.6-1.2,0.7c-4.9,1.6-9.8,3.1-14.8,4.4L88.7,229.6z"/>
		<path class="st7" d="M90,215.6c0.6,18.7,0.3,37.5-1,56.2c-0.1,1.3-0.3,2.8-1.3,3.8s-2.6,1-4.1,1c-24.8,0.1-49.6,0.2-74.4,0.1
			c-0.7,0.1-1.5-0.1-2.1-0.5c-0.4-0.5-0.7-1.1-0.7-1.8c-2.9-19.1-3.2-38.6-0.9-57.8L90,215.6z"/>
		<path class="st7" d="M108.5,231.2c0.1,11,0,22-0.1,32.9c0,0.7,0,1.5-0.1,2.2c-0.1,0.6-0.2,0.6-0.4,0.6c-2.3,0.1-4.7,0.1-7,0.1
			c-0.1,0-0.1,0-0.2-0.3c0-0.3-0.1-0.7-0.1-1c-0.3-11.2-0.3-23.3-0.1-34.6L108.5,231.2z"/>
		<path class="st8" d="M56.7,210.1c4.3,0.4,8.7,0.9,12.6-0.7s7.4-4.8,8.3-8.9c1.1-4.7-1.3-9.8-5.4-12.5c-4.3-2.6-9.5-3.1-14.2-1.3
			c-1.3,0.4-2.5,1.1-3.5,1.9c-2.1,1.8-3,4.6-3.5,7.3c-0.6,2.6-0.5,5.3,0.1,7.9c0.8,2.7,2.7,4.8,5.3,5.8"/>
		<path class="st7" d="M57.3,218c3.5-5.8,6.5-11.9,9.1-18.2l-4.3-0.1c-0.5,0-0.9,0-1.3,0.2c-0.3,0.2-0.6,0.5-0.8,0.8
			c-4,5.7-6.1,12.4-9.9,18.2"/>
		<path class="st7" d="M19,176.2c-3.8,1.4-7.1,4-9.4,7.3c-5.2,7.4-4.7,22.6,5.3,27c6.2,2.7,17.4,3.5,22.5-1
			c4.3-3.6,7.5-8.3,9.2-13.6"/>
		<path class="st8" d="M9.7,200.7c-1.7-3.4-1.1-7.4-0.5-11.1s1.8-7.7,4.7-10.4c1.4-1.2,3.1-2.2,4.8-2.9c6.4-2.5,14.2-2.3,20,1.3
			s9.4,10.7,8,17.3c-1.2,5.7-5.9,10.3-11.4,12.8C35.4,207.7,15.8,213.1,9.7,200.7z"/>
		<path class="st7" d="M34.6,184c-0.2-0.4-0.2-0.9-0.1-1.4c0-0.5,0.2-0.9,0.6-1.2c0.2-0.1,0.4-0.3,0.6-0.4c0.8-0.3,1.7-0.3,2.4,0.2
			c0.7,0.4,1.1,1.3,1,2.1c-0.2,0.7-0.7,1.3-1.4,1.5C37.7,184.8,35.3,185.5,34.6,184z"/>
		<path class="st7" d="M38.5,193.9c-0.1-0.4-0.1-0.9,0-1.4c0-0.5,0.2-0.9,0.6-1.2c0.2-0.2,0.4-0.3,0.6-0.4c0.8-0.3,1.7-0.3,2.4,0.2
			c0.7,0.4,1.1,1.3,1,2.1c-0.2,0.7-0.7,1.3-1.4,1.5C41.7,194.8,39.3,195.4,38.5,193.9z"/>
		<path class="st7" d="M23.6,181c-0.2-0.4-0.2-0.9-0.1-1.4c0-0.5,0.2-0.9,0.6-1.2c0.2-0.1,0.4-0.3,0.6-0.4c0.8-0.3,1.7-0.3,2.4,0.2
			c0.7,0.4,1.1,1.3,1,2.1c-0.2,0.7-0.7,1.3-1.4,1.5C26.7,181.8,24.3,182.5,23.6,181z"/>
		<path class="st7" d="M13.3,186.3c-0.2-0.4-0.2-0.9-0.1-1.4c0-0.5,0.2-0.9,0.6-1.2c0.2-0.1,0.4-0.3,0.6-0.4
			c0.8-0.3,1.7-0.3,2.4,0.2c0.7,0.4,1.1,1.3,1,2.1c-0.2,0.7-0.7,1.3-1.4,1.5C16.5,187.1,14.1,187.8,13.3,186.3z"/>
		<path class="st7" d="M11.7,197.2c-0.2-0.4-0.2-0.9-0.1-1.4c0-0.5,0.2-0.9,0.6-1.2c0.2-0.1,0.4-0.3,0.6-0.4
			c0.8-0.3,1.7-0.3,2.4,0.2c0.7,0.4,1.1,1.3,1,2.1c-0.2,0.7-0.7,1.3-1.4,1.5C14.9,198,12.5,198.7,11.7,197.2z"/>
		<path class="st7" d="M20.4,204.6c-0.2-0.4-0.2-0.9-0.1-1.4c0-0.5,0.2-0.9,0.6-1.2c0.2-0.1,0.4-0.3,0.6-0.4
			c0.8-0.3,1.7-0.3,2.4,0.2c0.7,0.4,1.1,1.3,1,2.1c-0.2,0.7-0.7,1.3-1.4,1.5C23.5,205.5,21.1,206.1,20.4,204.6z"/>
		<path class="st7" d="M32.2,202.3c-0.2-0.4-0.2-0.9-0.1-1.4c0-0.5,0.2-0.9,0.6-1.2c0.2-0.1,0.4-0.3,0.6-0.4
			c0.8-0.3,1.7-0.3,2.4,0.2c0.7,0.4,1.1,1.3,1,2.1c-0.2,0.7-0.7,1.3-1.4,1.5C35.4,203.2,33,203.8,32.2,202.3z"/>
		<path class="st7" d="M69.6,192.8c-0.1-0.3-0.1-0.6,0-0.9c0-0.5,0.3-0.9,0.8-1.1c0.6-0.2,1.2-0.1,1.7,0.2c0.5,0.3,0.7,0.9,0.6,1.5
			c-0.2,0.5-0.5,0.8-1,1C71.7,193.4,70,193.8,69.6,192.8z"/>
		<path class="st7" d="M72.1,199.7c-0.1-0.3-0.1-0.6,0-0.9c0-0.3,0.2-0.6,0.4-0.9c0.1-0.1,0.3-0.2,0.4-0.2c0.6-0.2,1.2-0.2,1.7,0.1
			c0.5,0.3,0.8,0.9,0.6,1.5c-0.2,0.5-0.5,0.8-1,1C74.3,200.3,72.6,200.8,72.1,199.7z"/>
		<path class="st7" d="M61.9,190.4c-0.1-0.3-0.1-0.6,0-0.9c0-0.3,0.2-0.6,0.4-0.9c0.1-0.1,0.3-0.2,0.4-0.2c0.6-0.2,1.2-0.2,1.7,0.1
			c0.5,0.3,0.7,0.9,0.6,1.5c-0.2,0.5-0.5,0.8-1,1C64.1,191.1,62.4,191.5,61.9,190.4z"/>
		<path class="st7" d="M54.7,194c-0.1-0.3-0.1-0.6,0-0.9c0-0.3,0.2-0.6,0.4-0.9c0.1-0.1,0.3-0.2,0.4-0.2c0.6-0.2,1.2-0.2,1.7,0.1
			c0.5,0.3,0.7,0.9,0.6,1.5c-0.2,0.5-0.5,0.8-1,1C56.9,194.6,55.2,195,54.7,194z"/>
		<path class="st7" d="M53.4,201.5c-0.2-0.6,0-1.3,0.4-1.8c0.1-0.1,0.3-0.2,0.4-0.2c0.6-0.2,1.2-0.2,1.7,0.1
			c0.5,0.3,0.8,0.9,0.6,1.5c-0.1,0.5-0.5,0.9-1,1.1C55.6,202.2,53.9,202.6,53.4,201.5z"/>
		<path class="st7" d="M59.3,206.8c-0.1-0.3-0.1-0.6,0-0.9c0-0.3,0.2-0.6,0.4-0.9c0.1-0.1,0.3-0.2,0.4-0.2c0.6-0.2,1.2-0.1,1.7,0.1
			c0.5,0.3,0.7,0.9,0.6,1.5c-0.2,0.5-0.5,0.8-1,1C61.5,207.4,59.8,207.9,59.3,206.8z"/>
		<path class="st7" d="M67.6,205.4c-0.1-0.3-0.1-0.6,0-0.9c0-0.3,0.2-0.6,0.4-0.9c0.1-0.1,0.3-0.2,0.4-0.2c0.6-0.2,1.2-0.2,1.7,0.1
			c0.5,0.3,0.7,0.9,0.6,1.5c-0.2,0.5-0.5,0.8-1,1C69.7,206.1,68.1,206.5,67.6,205.4z"/>
		<path class="st7" d="M44.9,218l-16.2-26.3c-0.2-0.5-0.6-0.9-1.1-1.1c-0.5-0.2-1.1-0.2-1.6,0l-3.8,0.7c6,8.9,11.3,18.3,15.6,28.1"
			/>
		<path class="st2" d="M262.3,304.8c3.8-6,5.7-13.1,5.4-20.2c0,0-3.4,11.2-23.9,19.2L262.3,304.8z"/>
		<polygon class="st9" points="404,273.2 374.8,255.1 401.4,293.9 		"/>
		<path class="st1" d="M163.4,193.3c1.3,24.5-5.9,48.7-6.2,73.2c-0.1,1.3,0.1,2.7,0.5,3.9c1.1,2.6,4.3,3.7,7.2,4.1
			c8.7,1.2,17.5-1.4,25.8-4.5c3.8-1.4,7.8-3.1,10.2-6.3s2.9-7.7,3.2-11.8c1.5-19.9,3.1-53.1,2.2-73.1L163.4,193.3z"/>
		<path class="st7" d="M212.4,226c9.9-18.5,19.2-39.4,14.6-56.4c-0.8-3.6-2.6-6.8-5.3-9.4c-6.4-5.8-16.4-4.2-24.9-2.5
			c-11.2,2.3-24.6,3.6-32.3-4.8c-1.7-1.8-3-4-4.9-5.4s-5-2-6.8-0.3c-1.2,1.1-1.5,2.9-1.6,4.5c-1.4,13.1,0.4,26.9,7.6,37.9
			s20.4,18.6,33.4,16.7c1.4-0.2,3-0.4,3.9,0.6c0.4,0.5,0.6,1,0.8,1.6l5.3,17.5H212.4z"/>
		<path class="st1" d="M199.7,219.2c4.8-3.5,11.6-2.5,15.2,2.4c2.6,3.5,2.8,8.2,0.6,11.9c-3.2,5.4-10.4,7-16.7,6.9L199.7,219.2z"/>
		<path class="st5" d="M220.7,209c-25,0.8-57.2-16.6-57.2-16.6c0.1,3.7-0.1,9.4-0.1,13c16.9,2,37.3,11.2,54.3,10.2
			C217.7,215.6,219.3,212.5,220.7,209z"/>
		<path class="st7" d="M157.2,186.4c3,7.2,9.4,12.7,16.6,15.8s15.1,4.1,23,4.4c1.8,0.1,3.6,0,5.4-0.2c2.4-0.6,4.8-1.5,7-2.7
			L157.2,186.4z"/>
		<polygon class="st10" points="437.2,293.8 441.5,296.3 437.2,220.4 435.9,219.1 		"/>
		<polygon class="st10" points="345.5,340.4 345.8,343.8 396,343.1 396.4,339.4 		"/>
		<path class="st5" d="M191.6,252.4c10,1.6,26.2,3.1,36.2,4.7c7.8,1.2,15.8,2.5,22.9,5.8s13.7,9,16.1,16.5c0.8,2.3,1,4.8,0.7,7.2
			c-1.2,7.4-8.7,11.8-15.6,14.7c-19.3,8.2-39.8,12.9-60.7,14L191.6,252.4z"/>
		<g>
			<defs>
				<path id="SVGID_5_" d="M192.9,252.4c10,1.6,26.2,3.1,36.2,4.7c7.8,1.2,15.8,2.5,23,5.8c7.1,3.1,12.5,9.1,14.9,16.5
					c0.8,2.3,1,4.8,0.7,7.2c-1.2,7.4-7.5,11.8-14.4,14.7c-19.3,8.2-39.8,12.9-60.7,14L192.9,252.4z"/>
			</defs>
			<clipPath id="SVGID_6_">
				<use xlink:href="#SVGID_5_"  style="overflow:visible;"/>
			</clipPath>
			<g class="st11">
				<path class="st4" d="M205.5,315.3c-0.9-21.5-0.4-43,1.6-64.5c0-1.6-1.4-3-3-3c-1.7,0-3,1.4-3.1,3c-2,21.4-2.5,43-1.6,64.5
					C199.6,319.2,205.7,319.2,205.5,315.3L205.5,315.3z"/>
				<path class="st4" d="M204.2,267.7c8-0.5,16.1-0.5,24.1,0c8.6,0.7,19.4,4.1,27.7,6.5c3.7,0.9,7.2,2.4,10.4,4.2
					c3.4,2,6.4-3.2,3.1-5.3c-6.7-4-14.8-5.9-22.4-7.2c-9.3-1.6-18.6-2.4-28-2.6c-4.7-0.1-9.4-0.1-14.1,0.2c-3.9,0.2-3.9,6.3,0,6.1
					L204.2,267.7z"/>
				<path class="st4" d="M203.7,287.6c45.5-1.9,64-3,69.5-1.3c1.6,0.5,3-1.3,3-3c0-1.6-1.4-3.3-3-3c-24,3.6-46.3,2.1-69.5,1.3
					C199.8,281.5,199.8,287.6,203.7,287.6L203.7,287.6z"/>
				<path class="st4" d="M203.6,304.3c17.8,0.8,36.2,1.2,53.7-2.7c4.5-1,8.9-2.4,13.2-4.3c1.4-0.9,1.9-2.7,1.1-4.2
					c-0.9-1.4-2.7-1.9-4.2-1.1c-7.1,3.2-15.1,4.6-22.8,5.5c-8.9,1-16.3,3.2-25.3,3.1c-4.7-0.1-11.9-0.5-16.6-0.7
					C198.9,299.8,199.7,304.1,203.6,304.3L203.6,304.3z"/>
			</g>
		</g>
		<polygon class="st10" points="160.3,273.1 191.6,263.8 191.6,269.9 		"/>
		<path class="st10" d="M204.9,239.9c0,0-3.6,0.1-5.1-0.5l4.9,3L204.9,239.9z"/>
		<path class="st7" d="M201.8,236.5c2.5,0.3,5-0.3,7.1-1.6c1.8-1.1,2.9-3,3.2-5.1c0.3-2,0.1-4.1-0.8-6c-0.8-1.7-2.3-2.8-4.1-3.2
			c-2.1-0.4-4.4-0.1-6.3,0.9c-0.5,0.3-0.7,1-0.4,1.5c0.3,0.5,0.9,0.7,1.4,0.4c2.2-1,5.9-1.4,7.3,1.1c0.7,1.4,1,3,0.8,4.5
			c0,1.5-0.7,2.9-1.8,3.9c-1.9,1.3-4.2,1.9-6.4,1.6c-0.6,0-1.1,0.5-1.1,1.1C200.7,236,201.2,236.4,201.8,236.5L201.8,236.5z"/>
		<path class="st7" d="M202.3,232c0.8,0,1.7-0.1,2.4-0.5c0.8-0.4,1.3-1,1.6-1.9c0.4-0.9,0.4-1.8,0-2.7c-0.3-0.6-0.9-1.2-1.5-1.4
			c-0.9-0.4-1.8-0.5-2.7-0.5c-0.6,0-1.1,0.5-1.1,1.1c0,0.6,0.5,1.1,1.1,1.1h0.6h0.3c0.1,0,0.2,0,0.1,0c0.2,0,0.4,0.1,0.6,0.1
			l0.2,0.1h-0.1h0.1c0.1,0,0.2,0.1,0.2,0.1h0.1h-0.1c0,0,0.3,0.3,0.3,0.3c-0.1-0.1-0.1-0.1,0-0.1c0,0,0.1,0.1,0.1,0.1v0.1
			c0.1,0.1,0,0.1,0-0.1c0,0.1,0,0.1,0.1,0.2c0,0.1,0,0.1,0,0v0.1c0,0.1,0,0.4,0,0.1c0,0.1,0,0.2-0.1,0.3c-0.1,0.2-0.1,0.4-0.2,0.5
			v-0.1l-0.1,0.1c0,0.1-0.1,0.2-0.1,0.2c0.1-0.1,0.1-0.1,0.1-0.1l-0.1,0.1l-0.1,0.1c0.1-0.1,0.1-0.1,0.1,0l-0.2,0.1h-0.1l0,0
			c-0.1,0.1-0.4,0.1-0.5,0.1s-0.4,0.1-0.1,0c-0.1,0-0.2,0-0.3,0h-0.6c-0.6,0.1-1,0.6-1,1.2C201.4,231.5,201.8,231.9,202.3,232
			L202.3,232z"/>
		<path class="st8" d="M161.9,222.6c-1.5,1.1-6.2,12.1-7,20.1c-0.1,1.4,0.9,2.7,2.4,2.8c0,0,0,0,0,0c2.4,0.2,4.7,0.2,7.1,0
			c0.3,0,0.6-0.1,0.9-0.2c0.3-0.4,0.5-0.8,0.4-1.3L161.9,222.6z"/>
		<polygon class="st10" points="324.1,75.2 314.3,83.3 321.3,83.3 		"/>
		<path class="st5" d="M492.5,209.1l33.8,15.5c0,0,10.1-36.8,14.8-69l-17.3-4.6L492.5,209.1z"/>
		<path class="st4" d="M519.3,160.9c4.4-7.8,16.5-0.4,19,3c2.6,3.5,6.4-2.6,9.4-5.7c3.5-3.7,16.4-7.2,25.4-9.3
			c5.6-1.3,11.2-2.8,16.9-3.9c3.9-0.8,11.7-1.2,13.7-3.5c6.5-7.3-8.2-8.4-12.2-8.5c-13.2-0.5-26.4-0.2-39.6-0.5
			c-10.3-0.2-28-0.4-31.1,2.2c-5.7,4.9-7.1,17-8.2,23.9C511.4,166.2,515.4,167.8,519.3,160.9z"/>
		<path class="st12" d="M498.6,211c1-3.1,2.3-6,3.9-8.9c0.4-0.7,0.2-1.7-0.5-2.1c-0.7-0.4-1.7-0.2-2.1,0.5c-1.6,3.1-3,6.3-4.1,9.6
			c-0.2,0.8,0.3,1.6,1.1,1.9C497.5,212.3,498.3,211.8,498.6,211z"/>
		<path class="st12" d="M504.7,214.2c0.8-3.3,2.2-6.5,4.1-9.3c0.4-0.7,0.2-1.7-0.6-2.1c-0.7-0.4-1.7-0.2-2.1,0.6
			c-2.1,3-3.6,6.4-4.4,10c-0.2,0.8,0.3,1.6,1.1,1.9C503.6,215.5,504.5,215,504.7,214.2L504.7,214.2z"/>
		<path class="st12" d="M511.5,216.7C511.5,216.5,511.5,216.5,511.5,216.7c0-0.2,0-0.3,0-0.4s0.1-0.4,0.1-0.6
			c0.1-0.4,0.1-0.7,0.2-1.1c0.2-0.8,0.4-1.5,0.7-2.3c0.2-0.7,0.5-1.4,0.9-2c0.4-0.7,0.8-1.4,1.2-2.1c0.4-0.7,0.2-1.7-0.5-2.1
			c-0.7-0.4-1.6-0.2-2.1,0.6c-2,3-3.2,6.4-3.6,10c0,0.8,0.7,1.5,1.5,1.5C510.7,218.2,511.4,217.5,511.5,216.7L511.5,216.7z"/>
		<path class="st12" d="M517.6,220.6c0.3-3,1-6,2.1-8.9c0.2-0.8-0.3-1.6-1.1-1.9c-0.8-0.2-1.6,0.3-1.9,1.1c-1.2,3.1-2,6.4-2.2,9.7
			c0,0.8,0.7,1.5,1.5,1.5C516.9,222.1,517.6,221.5,517.6,220.6L517.6,220.6z"/>
		<path class="st12" d="M522.5,223.5l3.7-9.2c0.2-0.8-0.3-1.6-1.1-1.9c-0.8-0.2-1.6,0.3-1.9,1.1l-3.7,9.2c-0.2,0.8,0.3,1.6,1.1,1.9
			C521.4,224.7,522.3,224.3,522.5,223.5z"/>
		<path class="st5" d="M384.1,443.9c-2.8,23.4-4.6,39.9-7.4,60l-21.1,2c-1.2-26.4-2.3-43-3-62.5L384.1,443.9z"/>
		<path class="st4" d="M377.3,498.5c-0.8,5.8-1.1,11.6-1.9,17.4c-0.7,5.3-6.8,4.9-10.8,5.1c-10.7,0.6-17.7,0.8-26.2,0.8
			c-5.5,0.2-11,0.3-16.5,0.4c-2.8,0-5.5,0-8.3,0c-1.8,0-5.8,0.2-7.1-0.4c-3.3-1.6-3.2-8.5,0.5-9.8c6.4-2.2,13.9-1.9,20.6-2.9
			c7.1-0.9,14-2.7,20.7-5.2c3.6-1.4,7.3-3.2,11.1-2.8c2.5,0.3,4.8,1.5,7.2,1.8c2.1,0.3,4.6-0.4,5.7-2.1c0.5-0.9,1.1-1.6,1.8-2.3
			C375.7,497.1,377.7,495.7,377.3,498.5z"/>
		<path class="st12" d="M356.5,453.5c-0.3-3.4-0.3-6.7,0-10.1c0-0.8-0.7-1.5-1.5-1.5c-0.8,0-1.5,0.7-1.5,1.5
			c-0.3,3.4-0.2,6.7,0,10.1c-0.1,0.8,0.4,1.6,1.3,1.7c0.8,0.1,1.6-0.4,1.7-1.3C356.5,453.9,356.5,453.7,356.5,453.5z"/>
		<path class="st12" d="M363.4,453.6c-0.6-3.2-0.6-6.5,0-9.8c0.2-0.8-0.3-1.6-1.1-1.9c-0.8-0.2-1.6,0.3-1.9,1.1
			c-0.7,3.8-0.7,7.6,0,11.4c0.2,0.8,1.1,1.3,1.9,1.1C363.1,455.3,363.6,454.5,363.4,453.6z"/>
		<path class="st12" d="M370.6,453.6c-0.9-2.9-1.1-6-0.6-9c0.2-0.8-0.3-1.6-1.1-1.9c-0.8-0.2-1.6,0.3-1.9,1.1
			c-0.6,3.5-0.4,7.2,0.6,10.6c0.2,0.8,1.1,1.3,1.9,1.1S370.9,454.4,370.6,453.6L370.6,453.6L370.6,453.6z"/>
		<path class="st12" d="M377.9,454.7c-1-2.9-1.6-5.9-1.7-9c0.1-0.8-0.4-1.6-1.3-1.7c-0.8-0.1-1.6,0.4-1.7,1.3c0,0.2,0,0.3,0,0.5
			c0.1,3.3,0.7,6.6,1.8,9.8c0.2,0.8,1.1,1.3,1.9,1.1S378.1,455.5,377.9,454.7L377.9,454.7z"/>
		<path class="st12" d="M383.4,455.4l-0.3-9.9c0.1-0.8-0.4-1.6-1.3-1.7c-0.8-0.1-1.6,0.4-1.7,1.3c0,0.2,0,0.3,0,0.5l0.3,9.9
			c-0.1,0.8,0.4,1.6,1.3,1.7c0.8,0.1,1.6-0.4,1.7-1.3C383.4,455.7,383.4,455.5,383.4,455.4z"/>
		<g>
			<defs>
				<polygon id="SVGID_7_" points="345.1,200.5 345.5,235.5 436.6,260.5 435.7,224.6 400,204.1 				"/>
			</defs>
			<clipPath id="SVGID_8_">
				<use xlink:href="#SVGID_7_"  style="overflow:visible;"/>
			</clipPath>
			<g class="st13">
				<path class="st2" d="M342.7,217.5c10.8-3.2,21.4-5.7,32.4-6c13.7-0.4,27.2,3.1,38.9,10.1c8.6,5.4,16.4,12.1,22.9,19.9
					c1.2,1.2,3.1,1.2,4.3,0c1.2-1.2,1.2-3.1,0-4.3c-11.4-13.2-25.7-24-42.5-28.9c-13-3.7-26.5-3.6-39.7-1.2c-6,1.2-12,2.7-17.9,4.5
					C337.4,212.8,339,218.7,342.7,217.5L342.7,217.5z"/>
			</g>
		</g>
		<path class="st14" d="M573.5,129.1c-15.9,5.9-35.2,3.4-49.2-12.5c-8.4-9.6-10.6-22.3-8.2-34.6c7.3-37.3,62-46.7,80.8-12.8
			C611.7,96.1,595.9,120.8,573.5,129.1z"/>
		<path class="st7" d="M177.1,217.8h0.9l0.5,0.1c0.4,0-0.1,0-0.2,0c0.6,0.2,1.2,0.2,1.8,0.4s1.1,0.4,1.6,0.6
			c0.4,0.1-0.6-0.3-0.1-0.1l0.4,0.2c0.3,0.1,0.6,0.3,0.9,0.4c0.5,0.3,1,0.6,1.5,0.9l0.3,0.2c0.5,0.4-0.4-0.3-0.1-0.1
			s0.4,0.4,0.7,0.6c0.5,0.4,0.9,0.8,1.3,1.3l0.2,0.3c0.3,0.4,0.1,0.1-0.1-0.1c0.2,0.3,0.4,0.5,0.6,0.8c0.8,1.4,2.7,1.9,4.2,1.1
			s1.9-2.7,1.1-4.2c-3.4-5.1-9.1-8.3-15.3-8.5c-1.7,0-3,1.4-3.1,3.1C174.2,216.4,175.5,217.7,177.1,217.8L177.1,217.8z"/>
		<path class="st7" d="M176.7,225.2c-0.1,0.1-0.1,0.2-0.2,0.3c-0.6,1.3-1.9,4.6-0.9,5.9s2.9,0.9,4-0.2c1.6-1.8,1.6-4.5,0-6.3
			c-0.5-0.6-1.3-0.9-2.1-0.6C177.2,224.6,176.9,224.9,176.7,225.2z"/>
		<path class="st7" d="M180.7,239.1c2.5-1.6,4.5-4,5.6-6.8c0.2-0.6-0.2-1.1-0.7-1.3c0,0,0,0,0,0c-0.6-0.1-1.1,0.2-1.3,0.7l-0.1,0.1
			l-0.1,0.1l-0.2,0.4c-0.1,0.3-0.3,0.6-0.5,0.9s-0.3,0.6-0.5,0.8l-0.3,0.4c0.1-0.2-0.1,0.1-0.1,0.1l-0.1,0.2c-0.4,0.5-0.9,1-1.4,1.4
			l-0.4,0.3l-0.2,0.2c0.1-0.1,0,0-0.1,0c-0.3,0.2-0.5,0.4-0.8,0.6c-0.5,0.3-0.8,0.9-0.5,1.4c0.3,0.5,0.9,0.8,1.4,0.5
			C180.6,239.1,180.6,239,180.7,239.1L180.7,239.1z"/>
		<path class="st7" d="M184.8,241.1c1.3-0.8,2.5-1.8,3.4-3c0.2-0.2,0.2-0.5,0.1-0.8c-0.1-0.3-0.3-0.5-0.5-0.6
			c-0.2-0.1-0.5-0.2-0.8-0.1c-0.3,0.1-0.5,0.3-0.6,0.5l-0.1,0.2l0.2-0.2c-0.5,0.6-1.1,1.2-1.7,1.7l0.2-0.2c-0.4,0.3-0.8,0.6-1.2,0.8
			c-0.5,0.3-0.7,1-0.4,1.5C183.6,241.3,184.3,241.5,184.8,241.1L184.8,241.1z"/>
		<path class="st4" d="M575.5,101.2c-6.5,2.6-12.2,5.8-18.6,8.4l0,0c-5.2-5.1-11.5-8.1-16.7-13.3c0.3,1-0.3-1,0,0
			c1.4-6.6,3-13.4,4.4-20.1l0,0c6.2-1.5,11.2-3.4,17.4-4.7l-0.8-0.1c5.7,4.2,11,6.5,16.6,10.7c-0.5-1.1,0.5,1.2,0,0
			C576.8,88.3,576.5,95,575.5,101.2c-0.3,1.6-2.4,3-0.7,3.4c1.5,0.4,3.5-0.5,3.8-2.1l2.9-18.4c0.3-1.3-0.3-2.7-1.4-3.4l-9.3-6.9
			l-5.9-4.4c-0.5-0.4-1-0.8-1.5-1.1c-1.5-1-3.4-0.3-5,0.1c-5.3,1.3-10.5,3.3-15.8,4.6c-1,0.3-1.9,1.1-2.1,2.1l-2.5,12.3l-1.4,6.6
			c-0.2,0.6-0.3,1.2-0.3,1.8c0,2.4,3.4,4.5,5.1,5.8c4.2,3.3,8.8,6.3,12.7,10.1c0.8,0.8,1.9,1.1,3,0.8l19.5-7.8
			c1.6-0.5,2.5-2.1,2.1-3.8C578.2,99.4,577,100.6,575.5,101.2z"/>
		<path class="st4" d="M574.8,103.4C575.1,103.5,575.9,103.9,574.8,103.4l0.7,0.3c3.4,1.7,6.6,4,10,5.8c1.4,0.8,2.9,1.5,4.4,2
			c0.8,0.3,6.8,1,4.7-0.5c-1.9-1.3-6-3.6-8.4-5.2c-3.2-2.1-6.3-4.5-9.2-7c3.7,3.2-0.5,3.2-2.6,4.4
			C574.6,103.3,574.7,103.4,574.8,103.4z"/>
		<path class="st4" d="M551.2,127.2c1.9-5.8,4.6-11.1,6.7-16.8c0.6-1.5-0.7,0.7-2.2,0.4c-1.7-0.4-1.9-2.4-2.5-0.8
			c-2.1,5.7-2.9,10.5-4.8,16.3c-0.5,1.5-1,3,0.5,3.4s1.3-0.2,1.8-1.8L551.2,127.2z"/>
		<path class="st4" d="M538.4,93.6c-1.1,0.2-2.1,0.5-3.2,1c-2.2,0.7-4.4,1.1-6.7,1.2c-1.6,0.2-3.2,0.4-4.8,0.6
			c-1.1,0.1-3,0.6-4.1,0.8s-2.2,0.6-0.5,1.6c0.5,0.2,1,0.3,1.5,0.2c3.4,0,6.8,0,10.2,0.3c3.3,0.4,6.7,0.4,10.1,0
			c1.6-0.2-2.4-2.1-2.8-3.2S540.1,93.3,538.4,93.6z"/>
		<path class="st4" d="M544.1,72.9c-0.2-0.1-0.4,0.6-0.6,0.5c0,0,0.7-0.4,0.4-0.6c-0.1,0-0.2,0.7-0.4,0.6c-0.5-0.2-0.9-0.4-1.4-0.7
			c-2.1-1.1-4.1-2.4-6.2-3.5s-4-2.1-6-3.1c-0.8-0.4-3.8-2-4-1c0,0.8,0.3,1.6,0.9,2.1c1.6,1.5,3.4,3,5.2,4.3c1.7,1.5,3.6,2.8,5.5,4.1
			c2.1,1.3,2.6,2.4,4.9,3.2c1.5,0.5-1.4-1-1-2.5C541.9,74.6,545.7,73.5,544.1,72.9z"/>
		<path class="st4" d="M563.7,71.1c0.8-1.4,1.5-1.9,1.8-3.4c0.8-3.1,2-6,3.4-8.9c1-1.9,1.9-3.9,2.8-6c0.2-0.7,0.6-1.9,0-2.5
			c-0.4-0.4-1.2-0.2-1.6,0.1c-0.8,0.6-1.4,1.4-1.8,2.3c-1.6,2.8-3.3,5.6-4.8,8.5c-0.7,1.4-1.3,2.8-2.1,4.1c-0.8,1.3-1.6,2.6-2.4,3.9
			s1.4-0.5,2.9,0.3S562.8,72.5,563.7,71.1z"/>
		<path class="st4" d="M580.1,85.9c3.9-2,7.9-3.9,11.9-5.7l-0.4,0.2c1.7-0.5,7.8-3.8,7-5.3c-0.4-0.8-5.2,0.6-6.5,1.2
			s-5.4,1.8-6.9,2.3c-2.7,0.8-5.6,0.8-8.1,2.1c-1.4,0.7,1,0.9,1.8,2.3S578.6,86.7,580.1,85.9z"/>
		<path class="st4" d="M531.2,136.2l0.1-4.2l-2.2,2.9c2.7-0.4,5.5-0.9,8.2-1.4l-0.8,0.1c0.2,0,0.3,0,0.5,0l-0.8-0.1
			c0.5,0.1,0.2-0.1-0.8-0.5c-0.2-0.2-0.3-0.4-0.4-0.6c-0.2-0.5,0,0,0,0.1c0.1,0.4,0.2,0.8,0.3,1.2l0.5,2.6c0.5,1.6,2.1,2.6,3.7,2.1
			c1.6-0.5,2.5-2.1,2.1-3.8c-0.3-1.3-0.5-2.6-0.8-3.9c-0.2-1-0.8-1.8-1.5-2.4c-1.1-0.8-2.4-1-3.7-0.7c-2.7,0.4-5.4,0.9-8.1,1.3
			c-0.6,0.2-1.2,0.5-1.6,1.1c-0.4,0.5-0.6,1.2-0.7,1.9l-0.1,4.2c0,1.6,1.4,3,3,3C529.8,139.1,531.1,137.8,531.2,136.2L531.2,136.2z"
			/>
		<path class="st4" d="M580,131.6c-0.1,0-0.1-0.1-0.2-0.1l0.5,0.6c0-0.1-0.1-0.1-0.1-0.2l0.3,0.7c0-0.1,0-0.1-0.1-0.2l0.1,0.8
			c0-0.1,0-0.2,0-0.3l-0.1,0.8c0-0.1,0.1-0.2,0.1-0.3l-0.3,0.7c0-0.1,0.1-0.1,0.1-0.2l-0.5,0.6c0.1-0.1,0.2-0.2,0.2-0.2l-0.6,0.5
			c0.1-0.1,0.3-0.2,0.4-0.2l-0.7,0.3c0.2-0.1,0.4-0.1,0.6-0.1l-0.8,0.1c1-0.1,2-0.1,3.1-0.1c1,0,1.9,0,2.9,0.1l-0.8-0.1
			c0.3,0.1,0.7,0.1,1,0.3l-0.7-0.3c0.2,0.1,0.4,0.2,0.6,0.4l-0.6-0.5c0.2,0.1,0.3,0.3,0.4,0.4l-0.5-0.6c0.1,0.2,0.2,0.4,0.3,0.6
			l-0.3-0.7c0.1,0.2,0.1,0.3,0.1,0.5l-0.1-0.8c0,0.2,0,0.3,0,0.5l0.1-0.8c0,0.1,0,0.2-0.1,0.3l0.3-0.7c0,0.1-0.1,0.2-0.2,0.3
			c-0.8,1.5-0.4,3.3,1.1,4.2c1.5,0.8,3.3,0.3,4.2-1.1c1.2-2,0.8-4.6-1-6.2c-1.6-1.5-3.7-1.7-5.8-1.7h-2.6c-1,0-1.9,0.1-2.9,0.3
			c-1.4,0.4-2.6,1.6-3,3c-0.4,1.4,0,3,1.1,4c0.6,0.5,1.3,0.9,2.2,0.9c1.6,0,3-1.4,3-3c0-0.8-0.3-1.6-0.9-2.1L580,131.6z"/>
		<path class="st4" d="M315.6,518.4c-2.2,1.8-1.4,5.6,1,6.9c2,1.2,4.3,0.7,6.4,0.5l2.9-0.3c1.1,0,2.2-0.2,3.3-0.4c1.8-0.5,3-2,3-3.8
			c0-0.9,0-1.9,0-2.8c0-1.7-1.4-3-3-3c-1.7,0-3,1.4-3,3v2c0,0.2,0,0.4,0,0.5c0,0.4,0-0.1,0.1-0.3l1-1.3c0.5-0.2,0.6-0.2,0.4-0.2
			s0.8-0.1,0.3,0c-1.4,0.1-2.9,0.3-4.3,0.4c-1.3,0.2-2.7,0.3-4,0.4c-0.1,0-0.2,0-0.4,0c0.5,0.1,0.6,0.1,0.4,0h-0.2
			c-0.3,0,0.5,0.4,0.1,0.1c0,0,0.6,0.5,0.3,0.2c0.3,0.4,0.4,0.5,0.3,0.3c-0.1-0.1,0-0.1,0.1,0.2s0.1,0.3,0.1,0.2s0-0.1,0,0.5
			c0-0.4-0.1,0.4-0.1,0.4c-0.1,0.3-0.2,0.5-0.4,0.7c-0.2,0.2-0.2,0.3-0.1,0.1c1.2-1.2,1.2-3.1,0-4.3
			C318.7,517.3,316.8,517.3,315.6,518.4L315.6,518.4z"/>
		<path class="st4" d="M359.1,524.5h5.8c0.6,0,1.3,0,1.9-0.2c1.1-0.3,2-1.1,2.4-2.1c0.3-1.2,0.4-2.5,0.3-3.8c0-0.8-0.3-1.6-0.9-2.2
			c-1.1-1.2-3-1.3-4.2-0.1c-0.6,0.6-1,1.4-0.9,2.3c0,0.8,0,1.6,0,2.4l0.1-0.8c0,0.1,0,0.1,0,0.2l0.3-0.7l0,0.1l0.5-0.6
			c0,0.1-0.1,0.1-0.1,0.1l0.6-0.5c0,0-0.1,0.1-0.2,0.1l0.7-0.3c-0.1,0-0.2,0-0.3,0.1l0.8-0.1c-1.1,0.1-2.2,0-3.3,0h-3.4
			c-0.8,0-1.6,0.3-2.1,0.9c-0.6,0.6-0.9,1.3-0.9,2.2C356.2,523,357.5,524.4,359.1,524.5L359.1,524.5z"/>
		<path class="st12" d="M357,508.4c3,2.2,6,4.8,8.9,7.3c0.6,0.6,1.6,0.6,2.2,0c0.6-0.6,0.6-1.6,0-2.2c-3.1-2.7-6.3-5.3-9.5-7.8
			c-0.7-0.4-1.7-0.2-2.1,0.5C356.1,507,356.3,507.9,357,508.4L357,508.4z"/>
		<path class="st12" d="M350.6,511.6c2.4,2.2,5,4.2,7.7,6.1c0.7,0.4,1.7,0.2,2.1-0.5c0.4-0.7,0.2-1.6-0.5-2.1
			c-0.6-0.4-1.3-0.9-1.9-1.3c-0.3-0.2-0.6-0.5-0.9-0.7l-0.1-0.1l-0.1-0.1l-0.5-0.4c-1.2-1-2.4-2-3.5-3c-0.6-0.6-1.6-0.6-2.1,0
			S350,511,350.6,511.6L350.6,511.6z"/>
		<path class="st12" d="M529,141.5l6.9,14.2c0.4,0.7,1.4,1,2.1,0.6s1-1.4,0.5-2.1l-6.9-14.1c-0.4-0.7-1.4-1-2.1-0.5
			C528.8,139.9,528.6,140.8,529,141.5L529,141.5z"/>
		<path class="st12" d="M536.6,139c0.8,2.1,1.8,4.1,2.9,6c1.2,2.2,2.4,4.3,3.4,6.6c0.4,0.7,1.4,1,2.1,0.5c0.7-0.4,1-1.4,0.5-2.1
			c-1-2.2-2.2-4.3-3.3-6.4c-0.5-1-1.1-2-1.6-3.1c-0.2-0.5-0.5-1-0.7-1.4l-0.1-0.3c-0.2-0.4,0.1,0.1,0-0.1s-0.2-0.4-0.2-0.6
			c-0.2-0.8-1.1-1.3-1.9-1.1C536.9,137.3,536.4,138.2,536.6,139L536.6,139z"/>
		<g>
			<defs>
				<path id="SVGID_9_" d="M325.4,47.3c0,0,16.3-28.2,30.9-26.6c0,0,4.9,0.7,1.5,6.8c0,0-5.5,14-10.6,21.5l-15.5,13L325.4,47.3z"/>
			</defs>
			<clipPath id="SVGID_10_">
				<use xlink:href="#SVGID_9_"  style="overflow:visible;"/>
			</clipPath>
			<g class="st15">
				<path class="st10" d="M333.4,48.3c8-9.4,16.8-18.2,26.1-26.3c1.5-1.3-0.7-3.4-2.1-2.1c-9.4,8.1-18.1,17-26.1,26.4
					C330,47.7,332.1,49.9,333.4,48.3L333.4,48.3z"/>
				<path class="st10" d="M339.8,51.6c6.8-6.7,13.3-13.8,20.4-20.1c1.5-1.3-0.7-3.5-2.2-2.1c-7.1,6.4-13.6,13.4-20.4,20.2
					C336.2,50.8,338.4,53,339.8,51.6L339.8,51.6z"/>
			</g>
		</g>
	</g>
	<g id="dot1">
		<path class="st16" d="M111.3,362.5c-4.6,4.4-3.5,13.6,4.4,11.4C127.3,370.6,119.2,355,111.3,362.5z"/>
	</g>
	<g id="dot2">
		<path class="st16" d="M145.3,101.9c-2.3,2.2-1.7,6.8,2.2,5.7C153.4,106,149.3,98.2,145.3,101.9z"/>
	</g>
	<g id="star2">
		<path class="st16" d="M341.2,138.9c1.3-4.7,3-9.3,5-13.8c0.3-0.7,1-1.5,1.6-1.2s0.6,1.2,0.4,1.8c-1,4.2-2,8.5-3,12.7
			c4-0.4,7.9,0.2,11.6,1.8c0.3,0.1,0.5,0.5,0.3,0.8c0,0.1-0.1,0.2-0.2,0.3c-2.2,1.4-4.8,2.1-7.4,2c-0.9-0.1-2-0.2-2.7,0.5
			c-0.4,0.5-0.6,1-0.7,1.6c-0.9,3.7-2.2,7.2-4,10.5c-0.2,0.3-0.6,0.5-1,0.3c-0.2-0.1-0.3-0.3-0.3-0.5c-0.7-3.3,0.7-7,0.6-10.5
			c0-0.4-0.1-0.8-0.3-1.1c-0.3-0.4-0.8-0.6-1.3-0.6c-3.7-0.8-7.4-1.9-10.9-3.3c-1-0.4-2.1-1.4-1.4-2.2c0.2-0.2,0.5-0.3,0.9-0.4
			c2.2-0.4,4.5-0.4,6.7,0L341.2,138.9z"/>
	</g>
	<g id="dot3">
		<path class="st16" d="M374.4,97.1c-3.6,3.4-2.7,10.6,3.5,8.9C387,103.4,380.6,91.3,374.4,97.1z"/>
	</g>
	<g id="dot4">
		<path class="st16" d="M450.9,445.6c-4.6,4.4-3.5,13.6,4.4,11.4C467,453.7,458.8,438.1,450.9,445.6z"/>
	</g>
	<g id="dot5">
		<path class="st16" d="M468.2,403.6c-2.3,2.2-1.7,6.8,2.2,5.7C476.3,407.7,472.2,399.9,468.2,403.6z"/>
	</g>
	<g id="star3">
		<path class="st16" d="M510.8,410.7c-2.1-6-3.7-12.1-4.9-18.3c-0.2-1-0.1-2.3,0.9-2.5s1.5,0.8,1.8,1.7c2,5.2,4.1,10.5,6.1,15.7
			c3.9-3.3,8.6-5.6,13.6-6.7c0.4-0.1,0.9,0.2,0.9,0.6c0,0.2,0,0.3-0.1,0.5c-1.3,3.1-3.5,5.7-6.4,7.5c-1,0.6-2.2,1.3-2.5,2.5
			c-0.1,0.8,0.1,1.6,0.4,2.3c1.8,4.5,2.9,9.3,3.5,14.1c0,0.5-0.3,1-0.8,1c-0.3,0-0.5-0.1-0.7-0.2c-3.2-2.9-4.4-8-7-11.6
			c-0.3-0.4-0.7-0.8-1.1-1c-0.6-0.1-1.3,0-1.8,0.3c-4.5,1.8-9.2,3.4-14,4.5c-1.3,0.3-3.3,0-3.1-1.3c0.1-0.4,0.3-0.7,0.6-1
			c2-2.1,4.4-3.7,7.1-4.9L510.8,410.7z"/>
	</g>
	<g id="dot6">
		<path class="st16" d="M534.6,367.5c-2.3,2.2-1.7,6.8,2.2,5.7C542.7,371.5,538.6,363.8,534.6,367.5z"/>
	</g>
</g>
<g id="Layer_2">
	<g id="star1">
		<path class="star1 st16" d="M99.3,417.2c0.4-4.5,1.2-8.9,2.2-13.2c0.2-0.7,0.6-1.5,1.3-1.3s0.7,1,0.7,1.6c-0.2,4-0.4,8-0.7,11.9
			c3.5-1,7.2-1.1,10.8-0.3c0.3,0.1,0.5,0.3,0.5,0.6c0,0.1-0.1,0.3-0.2,0.4c-1.7,1.6-4,2.7-6.3,3c-0.9,0-1.7,0.3-2.3,0.9
			c-0.3,0.5-0.4,1-0.4,1.6c-0.2,3.4-0.8,6.8-1.9,10c-0.1,0.3-0.5,0.5-0.8,0.4c-0.2-0.1-0.3-0.2-0.4-0.4c-1.2-2.8-0.5-6.4-1.1-9.5
			c0-0.4-0.2-0.7-0.4-1c-0.4-0.3-0.8-0.4-1.3-0.4c-3.5-0.1-6.9-0.5-10.4-1.1c-0.9-0.2-2.1-1-1.6-1.7c0.2-0.2,0.4-0.4,0.7-0.5
			c1.9-0.7,4-1.1,6-1L99.3,417.2z"/>
	</g>
</g>
</svg>
