<svg id="Layer_1" data-name="Layer 1" xmlns="http://www.w3.org/2000/svg" xmlns:xlink="http://www.w3.org/1999/xlink" viewBox="0 0 612 526.4"><defs>
  <style>
    .cls-1{fill:none;}.cls-2{fill:#f7bc28;}.cls-3{clip-path:url(#clip-path);}.cls-4{fill:#32142a;}.cls-5{fill:#7f4341;}.cls-6{fill:#e48929;}.cls-7{fill:#c05929;}.cls-8{fill:#ffc9a0;}.cls-9{fill:#fac7b7;}.cls-10{fill:#efb086;}.cls-11{fill:#f9a793;}.cls-12{fill:#f9b7a5;}.cls-13{fill:#39b55d;}.cls-14{fill:#b26d55;}.cls-15{fill:#194429;}.cls-16{fill:#a05744;}.cls-17{fill:#fff;}.cls-18{clip-path:url(#clip-path-2);}
    #clip-path, #bubble {
  		animation-name: organic;
  		animation-duration: 25s;
  		animation-iteration-count: infinite;
  		animation-timing-function: linear;
  		transform-origin: center;
  	}

  	@keyframes organic {
  		0% {
  		transform:scale(1, 1) rotate(0deg);
  		}
  		20% {
  			transform:scale(.97, .95) rotate(-5deg);
  		}
  		40% {
  			transform:scale(.95, .9) rotate(-20deg);
  		}
  		60% {
  			transform:scale(1, 1) rotate(-5deg);
  		}
  		80% {
  			transform:scale(.97, .95) rotate(5deg);
  		}
  		100% {
  			transform:scale(1, 1) rotate(0deg);
  		}
  	}

    #star1, #star2, #star3 {
  	animation-timing-function: ease-in-out;
  	animation-iteration-count: infinite;
  	animation-direction: alternate;
  	}

  	#star1 {
      animation-name: star1;
      animation-duration: 2.75s;
  	}

  	#star2 {
      animation-name: star1;
      animation-duration: 1.5s;
  	}

  	#star3 {
      animation-name: star1;
      animation-duration: 2.5s;
  	}

  	@keyframes star1 {
      0 {
        opacity: 0;
        width: 50px;
      }
  		15% {
        opacity: .25;
      }
  		50% {
  			opacity: 1;
  		}
  		85% {
        opacity: .25;
      }
      100% {
          opacity: 0;
          width: 35px;
      }
    }

  	@keyframes star2 {
      0 {
        opacity: 1;
        width: 35px;
      }
  		50% {
  			opacity: 0;
  			width: 75px;
  		}
      100% {
          opacity: 1;
          width: 35px;
      }
    }
  </style>
<clipPath id="clip-path">
  <path class="cls-1" d="M460.9,79.2C593.7,197.3,614.2,297.6,607.9,333,579.5,491.2,455.1,520.1,417.8,522.2c-49.2,2.7-128.2-.9-180.2.5-142.3,8.1-200-71.8-211-112.7-68-167.4,27.3-296.3,83.5-339.8C254.5-55.1,404.2,24,460.9,79.2Z"/></clipPath><clipPath id="clip-path-2"><path class="cls-1" d="M166.6,528l-1.3-78.3,3.9-7.4s-43.3,15.2-73-2c0,0-29-9.1-41.9-61.8,0,0-3.5,9.6-4.1,17.8,0,0-1.3,20.2-4.5,13.6,0,0-3.3-10.5-4.9-14.3l-12.2,1.1s.1,18.7.6,25.2c0,0,1.5,13.7.9,22.1l-.2,84Z"/></clipPath></defs><g id="characters">
  <path id="bubble" class="cls-2" d="M460.9,79.2C593.7,197.3,614.2,297.6,607.9,333,579.5,491.2,455.1,520.1,417.8,522.2c-49.2,2.7-128.2-.9-180.2.5-142.3,8.1-200-71.8-211-112.7-68-167.4,27.3-296.3,83.5-339.8C254.5-55.1,404.2,24,460.9,79.2Z"/><g id="characters-2"><g id="clipping-mask"><g class="cls-3"><path class="cls-4" d="M235.9,196.5c-4.8,19.4-13,39.2-29.5,50.5-15.3,10.5-36.1,11.7-53.2,4.4s-30.3-22.3-37-39.6c-5-13-6-29.2,3.5-39.5,5-5.4,12-8.3,18.9-11l44.8-17.9a4.67,4.67,0,0,1,6.2,1.2l46.7,44.2"/><path class="cls-5" d="M187.4,152.4a48.48,48.48,0,0,1-17.7,11.2,86.06,86.06,0,0,1-20.6,4.4c-2.8.3-5.6.6-8,1.9a14.11,14.11,0,0,0-4.9,5.1,27.25,27.25,0,0,0-3.5,13.3,44.91,44.91,0,0,0,9.8,30.1c8.7,10.9,21.8,18.7,35.8,19.9,14.3,1.2,29.5-5.9,36.1-18.9,1.3-2.6,2.1-11.3-2-1.7-4.6,10.7-18.6,16-30.1,16.2-13.1.2-25.7-6.6-34.3-16.1-4.3-4.7-10.2-10.3-11.8-16.4A49.36,49.36,0,0,1,135,192a30.89,30.89,0,0,1,.4-8.6c1-4.2,6.3-9,10.2-10.3,2.5-.8,5.2-.7,7.8-.8,9-.4,17.6-4.2,24.9-9.4,1.8-1.3,3.6-2.7,5.4-4.1a10.45,10.45,0,0,0,2.1-2.1,3,3,0,0,0,.2-2.9,1.78,1.78,0,0,0-2.4-.6c-.1,0-.1.1-.2.1Z"/><path class="cls-5" d="M152.5,196.1c-.5-4-1.3-9.1,1.6-12.4s8-3.5,12.1-3.4c5.1.2,13.7-2,18.6-4.5,4.2-2.1,5,.2,8.5-2.7,2.2-1.9-1-5-3.2-3.2-3.7,3.2-8.1,6.2-13,6.9-5.3.8-10.9-1.5-16.2-.9-4.4.5-8.8,2.3-11.3,6.2-2.7,4.1,1.2,10.9,1.8,15.5a2.22,2.22,0,0,0,2.2,2.2c1.2.1-.9-2.5-1.1-3.7Z"/><path class="cls-5" d="M206.9,207.3c4.7-4.5,5.6-5.3,8.6-11.1a2.38,2.38,0,0,0-.8-3.1c-1-.6-.9-1.1-1.5,0a57.83,57.83,0,0,1-10.8,15.1c-.9.8-6.2,3.4-5.3,4.2s6.1-1.9,7-2.7Z"/><path class="cls-6" d="M210.6,390c8.9,4.4,19.1,5.9,28.9,5.2,7.6-.5,19.6-1.4,23-9.6,7.2-17.5,14.4-36.7,21.7-54.6,2.3-5.6-3.8-9.1-8.1-10.9a52.91,52.91,0,0,0-24-3.3c-6.4.5-17.9,2.6-21.6,8.7l-1.9,3.8Z"/><path class="cls-7" d="M217.4,392.8l1.1.1c5.8.4,34.2,1.9,44.5-8.5l1.3-3.3Z"/><path class="cls-6" d="M278.3,343c1.7.5,3.3,1,4.9,1.6l.6.2a4.05,4.05,0,0,1,.9.5c.3.2.6.3.9.5l.4.3c.5.3-.3-.2.1.1a7.67,7.67,0,0,1,2.9,6.9c-.5,6-6,9.8-11.6,10.7-.6.1.4,0-.2,0l-.7.1h-2.6c-.2,0-1.1-.1-.8-.1a13.45,13.45,0,0,1-4.8-1.5,3.33,3.33,0,0,0-4.4,1.1,3.18,3.18,0,0,0,1.2,4.4,22.16,22.16,0,0,0,23.1-1.8c3.6-2.7,6.4-6.5,7-11a14.61,14.61,0,0,0-3.3-12.2c-3-3.5-7.7-4.9-12-6.2-3.9-1-5.6,5.2-1.6,6.4Z"/><path class="cls-7" d="M223.5,351.1a20.24,20.24,0,0,0,8.3,13.6c4.4,3.3,12,5.3,17.4,5.8-1.8,2.6-7,3.7-10.1,4.5a17.05,17.05,0,0,1-9.5-.1c-4.6-1.5-8-5.5-9.7-10a28.5,28.5,0,0,1-1-14.2"/><path class="cls-4" d="M182.5,149.8c-6.8-33.6,24.6-66,55.4-73.8,61.7-15.5,69.4,76.4,16.4,109.4-11.2,6.9-27-6.7-39.7-10.2s-24-12.4-29.4-24.4"/><path class="cls-4" d="M228.8,86.1c-19.7,2.8-19.1-33.8-.3-37.5,7.5-1.5,16.3,1.1,21.3,6.9,3.1,3.6,8.9,26.6.8,27.6C243.3,84,236,85,228.8,86.1Z"/><path class="cls-8" d="M178.4,181.1c-.5.9,8.9-3.7,9.2-2.8,2.3,6.1,7.4,10.2,13,13.4,6.1,3.5,17,13,24,13,15.5-.2,30.7-18.7,40.5-30.7,10.4-12.7,13.6-27.7,16.4-43.8.6-3.5.7-7.4-1.4-10.2a12.27,12.27,0,0,0-4.6-3.5c-16.8-8.5-37.8-3.6-53.2,7.2-13.8,9.8-23.9,23.6-33.4,37.6C186.1,165.5,184.2,171.1,178.4,181.1Z"/><path class="cls-8" d="M192.3,161.5c-8.5-.8-14.4-11-11.6-19s13-12.3,21-9.4,13,12.1,11.8,20.6"/><path class="cls-8" d="M165.3,198.8,186.5,170a3.17,3.17,0,0,1,1.9-1.5,2.92,2.92,0,0,1,2.1,1.1c5,4.6,10.4,10.1,9.9,16.9-.2,3.3-1.9,6.3-3.5,9.2l-12.3,22Z"/><path class="cls-9" d="M159.4,188.8C96,217.1,61.8,283.5,45.6,347.8c-6.2,24.4-9.1,48.7-11.1,73.7-.3,3.7-2.5,61.1-4.4,61.1,53.1.1,82.2-7.3,135.2-7.2-11.4-97.7,5.2-177.2,25.8-257.6Z"/><path class="cls-4" d="M284.5,118.5a17.3,17.3,0,0,0-1.4-3.1c-6-11.2-20.4-14.4-32.1-12.2-14.5,2.8-27.2,12.2-38.4,22.6-4.4,4.1-12.3,10.6-13.3,13.8s20.7,11.6,25.3,12.2c12.1,1.7,24.7.1,36.4-3.4,6-1.8,15-3.4,20.1-7.2C282.3,140.2,287.4,126.6,284.5,118.5Z"/><path class="cls-8" d="M189.5,412.9c4.4-10.6,15.6-17,26.8-19.8s22.9-3,34.1-5.8,22.5-9,27-19.5c1.8-4.2,1.1-10.9-3.5-11.2a8.48,8.48,0,0,0-4.8,1.7c-5.7,3.5-10.9,7.8-16.8,10.9s-12.8,5.1-19.3,3.5-12.2-7.4-12-14.1a49.22,49.22,0,0,1,1.7-8.5c.5-1.8-6.2,1.9-8,3.9s-3.7,4-4.5,6.6c-4.9,15.8-20.5,25.3-34.9,33.4"/><path class="cls-4" d="M190.6,154.7c-3-2.7-6.2-7.6-3.9-11.7a10.31,10.31,0,0,1,10.8-4.7c1.4.3,2-1.9.6-2.2-5-.9-10.8,1.1-13.3,5.8-2.8,5,.4,11,4.3,14.4,1,1,2.6-.6,1.5-1.6Z"/><path class="cls-4" d="M194.1,150.2c-.3-.4-.6-.9-.9-1.3a5.94,5.94,0,0,1-.4-.8c-.1-.2-.2-.3-.2-.5a2.35,2.35,0,0,1-.2-.8c.1.2,0-.1,0-.1v-.8a.37.37,0,0,1,.1-.3c0-.1,0-.1.1-.2h0c.1-.1.1-.2.2-.3s.2-.3.1-.1l.2-.2h0l.1-.1c.1-.1.2-.1.3-.2-.2.1,0,0,.1,0s.2-.1.3-.1h1.8l.3.1.7.2a1.17,1.17,0,0,0,.8-2.2c-.1,0-.1,0-.2-.1a7.79,7.79,0,0,0-3.7-.3,4,4,0,0,0-2.9,2,4.72,4.72,0,0,0-.3,3.7,9.18,9.18,0,0,0,1.9,3.5,1.25,1.25,0,0,0,1.6.3,1.44,1.44,0,0,0,.2-1.4Z"/><path class="cls-10" d="M256.6,375.2c3.1-1.9,6-3.9,9-6,4.4-3.1,9.1-6,12-10.7,1.1-1.8-1.7-3.4-2.8-1.6-2.7,4.3-7.3,7-11.3,9.8-2.8,2-5.7,3.9-8.6,5.7-1.7,1.1-.1,3.9,1.7,2.8Z"/><path class="cls-10" d="M263.5,378.5a68.3,68.3,0,0,0,9.2-6.8c2.7-2.5,5.2-5.4,7.7-8.2,1.4-1.5-.9-3.8-2.3-2.3-2.5,2.7-4.9,5.5-7.6,8a58.12,58.12,0,0,1-8.6,6.4c-1.7,1.2-.1,4,1.6,2.9Z"/><path class="cls-4" d="M273.4,331.7c-1.5.1-2.9,0-4.4,0-3.2,0-6.4-.1-9.6-.4a85.28,85.28,0,0,1-19.4-3.7c-1.8-.6-4-1.9-3.4-3.6.4-1,1.6-1.5,2.7-1.9,11.8-3.8,18.5-3.9,35.3,1.2,2.5.8,8.5,3.7,5.9,6.2a5.49,5.49,0,0,1-2.1,1.2A17.76,17.76,0,0,1,273.4,331.7Z"/><path class="cls-4" d="M244.1,156.8c5.5-2.2,12.2-2,18-1a2.73,2.73,0,0,0,3.5-1.8c.7-2-1.4-3.3-3.1-3.9-5-1.7-10.5-1.2-15.5.3a39.45,39.45,0,0,0-7.3,3.2c-1.5.9-5.4,2.7-5.1,4.9.4,3,7.5-.9,8.8-1.5Z"/><path class="cls-5" d="M223.3,141c11,.6,17.3.9,27.9-2.5a52.14,52.14,0,0,0,21.2-12.6c3.2-3.3,4.2-10.9,5.2-15.5.6-2.8-2.2,2-3.6,5.3-2.9,7-7,9.8-13.2,13.5a54.08,54.08,0,0,1-23.7,7.8c-6.4.4-11.9,1.1-23.6,1-2.9,0,1.7,2.5,4.6,2.7Z"/><path class="cls-5" d="M204,116.5c2.2-4.9,5.9-8.7,10.1-12a91.89,91.89,0,0,1,21.7-13c3.8-1.6,8-3.5,12.1-4.2,3.9-.7,8.2,1.7,11.6,3.3a23.76,23.76,0,0,1,5,2.6,5.46,5.46,0,0,1,1.8,2.4c.4,1.9-1.4,2-2.9,2.1-7.4.3-15.2.5-22.5,2.3s-13.3,6-19.2,10.7c-1,.8-3.9,4.3-3.1,5.1s6.9-5.3,7.9-6.1a36.06,36.06,0,0,1,13.2-7.1c6.6-2.2,14.8,0,21.7-.3,3.6-.2,12.8.8,11.8-1.2s-4.8-11-8.5-12.9a60.83,60.83,0,0,0-11.8-4.8,13.51,13.51,0,0,0-5.3-.5,34.47,34.47,0,0,0-4.6,1.2,64.85,64.85,0,0,0-23.3,12.8c-7.8,6.8-15.5,13.7-19.7,23.3C198.7,122.8,202.8,119.2,204,116.5Z"/><path class="cls-5" d="M231.8,126.1c10.9,3,21.7-.1,28.6-9.3.7-1,3.4-6.3,2.9-6.3s-2,2.7-2.7,3.7c-5.7,7.6-19.6,11.4-28.6,10.4-8-.8-3.1.8-.2,1.5Z"/><polygon class="cls-10" points="200.8 375.6 203.3 372.8 213.5 393.9 209 395.5 200.8 375.6"/><polygon class="cls-10" points="199.3 191.1 187.6 178.4 194.3 200.5 199.3 191.1"/><path class="cls-4" d="M251.6,162c-2.7.2-6.1,2.3-6.1,4.8,0,3.3,4.4,1.9,5.9.8,1.1-.8,3.1-2,3.2-3.5S253.3,161.9,251.6,162Z"/><path class="cls-4" d="M264.6,170.4c-2.4,1.2-4.8,4.4-3.8,6.8,1.3,3.1,4.8.1,5.8-1.6.7-1.1,2.1-3,1.6-4.5S266.1,169.6,264.6,170.4Z"/><path class="cls-6" d="M30.1,449.2c1.1-12.1-1.4-26.9-1.5-39-.1-9.8-.7-17.2,2.4-26.4a2.77,2.77,0,0,1,3.4-1.7,2.86,2.86,0,0,1,1.7,1.7c2.9,8.5,7.8,17.2,9.7,26.1a1.17,1.17,0,0,0,1.4,1,1.22,1.22,0,0,0,.9-.8c1.6-5.5,1.8-11.4,2.5-17.1a37.49,37.49,0,0,1,3.2-11.9,4.78,4.78,0,0,1,6.3-2.1,4.25,4.25,0,0,1,2.3,2.6l4.5,12.2a56.45,56.45,0,0,0,2.9,6.7,30.85,30.85,0,0,0,7.5,8.2c13.9,11.5,32.2,16.7,50.2,17.5s36-2.7,53.4-7.2l-15.7,30.8,1.3,78.3H29.9Z"/><path class="cls-6" d="M75.7,449c-5.2-11.6-11.9-32-14.8-42.8-6.3-23.3-11.3-47.2-9.5-71.3l4.7-8.7c17.4,38.5,36.7,79.2,72.4,101.8,1.7,1.1,3.5,2.2,4.5,3.9.9,1.5,29.3-1,29.4.8.5,5.6,1.8,10.7,3,17Z"/><path class="cls-9" d="M113.4,299.9c3.4-26.7,17.9-52.5,18.9-79.4.1-3.2,0-6.5-1.9-9.1-4.9-6.9-15.8-2.4-22.2,3-35.1,29.3-57.7,74.1-57,119.8.2,12.7,2.1,25.3,4.6,37.8C59.9,392.7,66,414.1,81,429c18.8,18.6,48.2,22.8,74,17.4s49.1-19.2,71.8-32.7q-16.2-40.05-32.4-79.9c-13.2,8.1-27,16.5-42.4,18-18.9,1.8-34.7-9.6-38.2-28.4A74.13,74.13,0,0,1,113.4,299.9Z"/><path class="cls-11" d="M117.3,212.2c3.9-1.4,8.2-1.7,11.7.8,3.1,2.1,4.6,6,4.9,9.6a21.67,21.67,0,0,1-.8,7.6,1.61,1.61,0,0,0,3.1.9,22.14,22.14,0,0,0-.8-15,13.23,13.23,0,0,0-10.1-7.9,18.48,18.48,0,0,0-9,1c-1.8.6-1,3.7,1,3Z"/><path class="cls-12" d="M59.3,387.7c-1.1-4.4,38.9,3.2,42.2,4,7,1.6,8.9,6.4,10.9,12.8,4.4,14.5,9,29,12.7,43.7C125.2,448.1,74.9,449.9,59.3,387.7Z"/><path class="cls-11" d="M193.8,332.3a134.18,134.18,0,0,1-19,9.4,136.13,136.13,0,0,1-18.6,6.4,32.9,32.9,0,0,1-18.4-.1c-6.8-2-13.3-6-17-12.1a43.79,43.79,0,0,1-5.9-22.3,1.6,1.6,0,1,0-3.2,0,48.27,48.27,0,0,0,4.8,21.1c3.4,7,9.1,11.8,16.2,14.9a35.81,35.81,0,0,0,21.2,2.5,118.69,118.69,0,0,0,18.6-6A136.72,136.72,0,0,0,195,335.3l-1.2-3Z"/><path class="cls-6" d="M257.6,168.4c-.4.3-.8.6-1.1.8-4.1,3.5-7.6,8-11.3,12a3.45,3.45,0,0,0-1.2,2.1c0,1,.9,1.8,1.8,2.4,3.2,2.3,6.9,4.7,11.2,1.6a10,10,0,0,0,3.5-5.1,46.31,46.31,0,0,0,2.2-13.3C262.8,165.4,259.7,167,257.6,168.4Z"/><path class="cls-13" d="M251.7,492.6S275.6,304,451.4,289.5l10-15.7,59-5,7.6,20.7s76.6,44.6,66.6,133.7L510.4,458v38.1Z"/><path class="cls-14" d="M520.5,268.8s-5.7-50.6-6.5-55.3c-1.7-9.1-3.2-25.2-7-33.6-5.8-12.8-21.6-19.3-35.2-15.8-15.5,3.9-26.3,19.7-32.3,33.6-5.6,12.9-18.1,51.9-5.6,63.8,9.3,8.9,28.2,3.4,37.9-2.1l-2.3,13.9Z"/><path class="cls-14" d="M508.6,214.7c.3-3.9,4-6.5,7.6-8a16.66,16.66,0,0,1,8.2-1.5,9,9,0,0,1,6.9,4.2,8.87,8.87,0,0,1,1,4.8c-.2,5-3.3,9.4-6.4,13.4-4.4,5.9-9.2,12.1-16.1,14.7"/><path class="cls-13" d="M510.4,458c-1.5-25.9-3-51.9-.3-77.8s3.8-69,17.9-90.7c19.1,11.6,46.4,41.1,54.9,61.8,8.3,20.1,15,34.3,11.7,71.9Z"/><path class="cls-15" d="M451.4,289.5l-9.5,14.7-5.2-13.1C436.6,291.2,446.9,289.5,451.4,289.5Z"/><path class="cls-7" d="M435.2,225a66.86,66.86,0,0,0-3,15.3,7.18,7.18,0,0,0,.7,3.8,1.47,1.47,0,0,0,.5.6,2.2,2.2,0,0,0,.8.1c3.7-.2,7.5-.4,10.9-1.9a3.27,3.27,0,0,0,1.5-1.1,2.87,2.87,0,0,0,.3-2.2c-1-6.3-5.5-10.6-8.6-16.7a1.41,1.41,0,0,0-1.8-.5,1,1,0,0,0-.5.6C435.7,223.6,435.5,224.3,435.2,225Z"/><path class="cls-14" d="M594.6,423.2a295.58,295.58,0,0,1-12,76.4c-4.5,15.6-9,44.6-22.3,55.4-12.5,10-32.2,2.1-45.1-3-17-6.7-34.2-11.7-51.2-18-22.1-8.2-55.4-13-79.8-10.9-11.9,1.1-16.8-7.6-28.6-6.4-2.1.2-4.5.4-6.2-.8a9.32,9.32,0,0,1-2.9-3.9l-5.8-11.5a9.88,9.88,0,0,1-1.5-5.3c.2-2.9,2.7-5.1,5.2-6.7,12.8-8.6,28.1-12.6,43.4-14.7,43-5.9,85.8,3.8,123.6,25.1.4-13.8.8-22.3,1.6-42Z"/><path class="cls-15" d="M419,512.4c6,2.1,21.8,1.7,25.9,5.6,4.3,4-32.4,5.5-36.9,6-35.4,3.3-70.8,5.4-106.3,6.8-33.8,1.3-70.1,5.5-103.6.4-13.7-2.1-18.4-8-19.1-21.7-1.6-33.5-3.1-67.1-4.7-100.6a13.43,13.43,0,0,1,11.1-13.8,892.85,892.85,0,0,1,177.4-11.4,8.93,8.93,0,0,1,8.6,8c1.6,16.8,7.6,55.8,8.8,60.3,3.4,12.7,7,25.8,13.8,37.1C400,499.3,404.1,507.3,419,512.4Z"/><path class="cls-4" d="M512,215.1a32.28,32.28,0,0,0,5.8-2.4c1.7-.7,4.2-1.8,6-.7,1.1.6,1,1.9.9,3a22.09,22.09,0,0,1-.8,3.7,24.88,24.88,0,0,1-3.2,6.8A16.33,16.33,0,0,1,514,231c-1.3.6-.2,2.5,1.1,1.9,5.5-2.5,9.1-7.7,10.8-13.4a32.9,32.9,0,0,0,.9-4.3,5.85,5.85,0,0,0-.7-4.1c-1.6-2.2-4.6-2.1-6.9-1.4-2.7.8-5.2,2.4-7.9,3.1a1.08,1.08,0,0,0-.7,1.4,1.3,1.3,0,0,0,1.4.9Z"/><path class="cls-4" d="M510.8,220.7a18,18,0,0,0,2.1-.8,7.6,7.6,0,0,0,1.1-.4c.2-.1.4-.1.6-.2l.2-.1s.3-.1.1,0h.7c.1,0,.3.1.1,0s.1.1.1.1h0l.2.2h0l.1.2c0,.1.1.2.1.3-.2-.3,0,.1,0,.1v.1c-.1-.2,0-.2,0,0v.4c0,.1-.1.2,0-.1v.1a.76.76,0,0,1-.1.4l-.1.2a5.74,5.74,0,0,1-.4.7l-.2.4-.1.1c-.2.2.2-.2,0,.1a15.38,15.38,0,0,1-1.2,1.3,4.35,4.35,0,0,1-.7.6l-.1.1-.1.1-.4.3a11.91,11.91,0,0,1-1.5.9l-.4.2c-.1,0-.2.1,0,0l-.2.1c-.2.1-.4.1-.6.2a1.14,1.14,0,1,0,.6,2.2h0a8.92,8.92,0,0,0,3.1-1.5,16.92,16.92,0,0,0,3.2-2.8,6.23,6.23,0,0,0,1.6-3.7,3.42,3.42,0,0,0-2.8-3.3c-1.9-.2-3.7,1-5.5,1.4a1.14,1.14,0,0,0-.8,1.4c0,.6.6.9,1.3.7Z"/><path class="cls-15" d="M449.4,316.6c5.7-11.2,11.6-22.2,17.8-33.2,1-1.8-1.8-3.4-2.8-1.6-6.1,10.9-12,22-17.8,33.2C445.7,316.9,448.5,318.5,449.4,316.6Z"/><path class="cls-15" d="M492.8,318.8l3.9-40.8c.2-2.1-3-2-3.2,0l-3.9,40.9c-.2,2,3,2,3.2-.1Z"/><path class="cls-15" d="M507.6,306.9V280.5a1.6,1.6,0,0,0-3.2,0v26.4a1.58,1.58,0,0,0,1.6,1.6A1.64,1.64,0,0,0,507.6,306.9Z"/><path class="cls-15" d="M480,311.7a190.5,190.5,0,0,1,3.8-22.4c.5-2-2.6-2.9-3.1-.9a184.17,184.17,0,0,0-3.9,23.2,1.58,1.58,0,0,0,1.6,1.6A1.56,1.56,0,0,0,480,311.7Z"/><path class="cls-15" d="M463.9,317.9l13.9-37c.7-1.9-2.4-2.8-3.1-.9l-13.9,37c-.7,1.9,2.4,2.8,3.1.9Z"/><path class="cls-15" d="M512.6,276.1c2.7,8,5.8,15.9,8.3,24a1.61,1.61,0,0,0,3.1-.9c-2.4-8.1-5.5-16-8.3-24C515,273.3,511.9,274.2,512.6,276.1Z"/><path class="cls-15" d="M513,456.9c-.2-23.4.3-46.9,1.5-70.2q.45-9.9,1.2-19.8c.1-2.1-3.1-2.1-3.2,0q-2.4,35-2.7,70.2c-.1,6.6-.1,14.6-.1,21.2l3.3-1.4Z"/><polygon class="cls-15" points="493.9 490 513.2 411.6 513.3 499.9 493.9 490"/><path class="cls-16" d="M513.2,498.7a37.2,37.2,0,0,1,8.2,5.9l-8.1-19.7Z"/><path class="cls-4" d="M460.3,214.1c-1,2.2-.8,5.1-.5,7.5.6,4.1,4.1,2.9,5.2-.3.9-2.6,1.3-6.1-.3-8.4S461.2,212,460.3,214.1Z"/><path class="cls-4" d="M426.1,218.6a14.69,14.69,0,0,0-.5,7.5c.6,4.1,4.1,2.9,5.2-.3.9-2.6,1.3-6.1-.3-8.4S427,216.6,426.1,218.6Z"/><path class="cls-4" d="M439.2,219.5c.7-.5,1.4-.9,2-1.4a6.25,6.25,0,0,1,2.2-1c2.2-.4,4.6-.7,6.5.7a1.1,1.1,0,0,0,1.1-1.9c-2.3-1.7-5.2-1.4-7.8-1a13,13,0,0,0-5.2,2.7,1.13,1.13,0,0,0-.4,1.5,1.28,1.28,0,0,0,1.6.4Z"/><path class="cls-9" d="M439.4,197.5c-.5,1.5,35.6-13.1,52-16.3l6.3,44.9a60.9,60.9,0,0,1,14.9-16.7s3.6-47.6-29.3-47.3C483.3,162.1,452,160.9,439.4,197.5Z"/><path class="cls-9" d="M458.9,204.6c.7,0,1.5-.1,2.2-.1a20.54,20.54,0,0,1,11.2,2.2c2.9,1.4,5.6,3.2,8.5,4.6,1,.5,2.2.9,2.9-.2a3.49,3.49,0,0,0-.1-3,26.68,26.68,0,0,0-9.5-11,19.71,19.71,0,0,0-9.5-2.4c-2.8,0-9.1.6-11.5,2.3-3,2.1,1,6.4,4.3,7.4A6.8,6.8,0,0,0,458.9,204.6Z"/><path class="cls-9" d="M436.6,202c-3-1-12.8-.3-15.5,1.8-2.5,1.8-.8,2.3,1.7,4.1,1,.7,5.3,1.2,6.5,1.3,10.7,1.4,12.1,1,13-1.3a1.18,1.18,0,0,0-.1-1c-.7-2.1-2.6-3.5-4.5-4.5C437.2,202.2,436.9,202.1,436.6,202Z"/><path class="cls-4" d="M424,205.4c-7.6.3-13.4,7-14.4,14.3-.5,4-.1,8.3,2.3,11.7a14.69,14.69,0,0,0,8.6,6c7.5,1.9,15.3-2.6,18.1-9.7A17.2,17.2,0,0,0,438,214a15,15,0,0,0-14-8.6,1.06,1.06,0,0,0-1,1.2,1.17,1.17,0,0,0,1,1,12.69,12.69,0,0,1,11.1,6,14.42,14.42,0,0,1,2.4,8,13.86,13.86,0,0,1-12.3,13.8,12.44,12.44,0,0,1-13.5-11.3v-.3a16.48,16.48,0,0,1,3.2-11.3,12.72,12.72,0,0,1,9.1-5A1.05,1.05,0,1,0,424,205.4Z"/><path class="cls-4" d="M464.1,198.6c-7.6.3-13.4,7-14.4,14.3-.5,4-.1,8.3,2.3,11.7a14.69,14.69,0,0,0,8.6,6c7.5,1.9,15.3-2.6,18.1-9.7a17,17,0,0,0-.6-13.6,15.22,15.22,0,0,0-14-8.7,1.22,1.22,0,0,0-1.1,1.3,1.17,1.17,0,0,0,1,1,12.69,12.69,0,0,1,11.1,6,15.28,15.28,0,0,1,2.4,8,13.86,13.86,0,0,1-12.3,13.8,12.44,12.44,0,0,1-13.5-11.3v-.3a16.48,16.48,0,0,1,3.2-11.3,12.72,12.72,0,0,1,9.1-5A1.1,1.1,0,1,0,464.1,198.6Z"/><path class="cls-4" d="M480.4,217.9c11.8-3.1,23.4-6.5,35-10.3a1.14,1.14,0,0,0-.6-2.2c-11.5,3.8-23.2,7.2-35,10.3a1.19,1.19,0,0,0-.7,1.5,1.21,1.21,0,0,0,1.3.7Z"/><path class="cls-17" d="M442.9,193.6c-1.4-5.7,11.3-8.6,11.7-3.7.1,1.5-1.3,2.2-2.4,1-1.2-1.4-.3-3.6.4-5a13,13,0,0,1,5.3-5.1,11.22,11.22,0,0,1,7.4-1.1,3.5,3.5,0,0,1,2.8,3c.2.6.9,4.1-.5,2.7-.8-.8-.4-2.6-.1-3.5a7.61,7.61,0,0,1,8.7-4.8V175a9.15,9.15,0,0,1-7.9-2.4c-2.2-2.4-1.1-5.1,1.5-6.4a8,8,0,0,1,11.5,5.9c.3,1.4,2.5.8,2.2-.6-1.4-7.3-10.4-11.1-16.4-6.2a5.77,5.77,0,0,0-1.2,8.1c.1.2.3.3.4.5,2.5,3,6.6,3.9,10.4,3.4,1.1-.2,1-1.9,0-2.2-5.8-1.5-13.3,3.9-11.7,10.3a3.58,3.58,0,0,0,2.6,2.7,2.56,2.56,0,0,0,3.1-1.9h0a9.88,9.88,0,0,0-.7-4.8,5.65,5.65,0,0,0-3.2-3.4c-6.5-2.5-14.4,2.3-16.9,8.3-1.2,2.9-.7,7.5,3.3,7.7,3,.1,4.1-3.2,3.1-5.6-1.6-3.7-6.5-3.3-9.7-2.3-3.6,1.1-7,4.1-6,8.3a1.22,1.22,0,0,0,2.3-.8Z"/><path class="cls-17" d="M487.7,179.6c-.3-2.8-.9-6.8,2-8.6a3.35,3.35,0,0,1,3.9.6,6.94,6.94,0,0,1,2,4.1c.1.7.2,1.5.3,2.3,0,.6.3,1.6-.2,2.1s-.1-.6,0-.8a4,4,0,0,1,1.4-1.5c2.3-1.6,5.9-2.3,7.5.6a11.86,11.86,0,0,1,1.1,4.2c.1,1.2.6,4.3-1.2,4.5-1.4.1-1.5,2.4,0,2.2,2.4-.3,3.6-2.4,3.7-4.6a16.67,16.67,0,0,0-1.1-6.6,6.1,6.1,0,0,0-4.6-3.9,9.14,9.14,0,0,0-6.6,1.8c-1.5,1.1-3.4,3.5-2.2,5.5s3.9.7,4.4-1.1a8.31,8.31,0,0,0,.1-3.5,11.08,11.08,0,0,0-.8-3.6,7.19,7.19,0,0,0-4.6-4.7,5.52,5.52,0,0,0-6.2,2.6c-1.6,2.5-1.4,5.6-1,8.4,0,1.4,2.3,1.4,2.1,0Z"/><path class="cls-17" d="M495.8,195c-.1-.5.6-.9,1-.9a1.91,1.91,0,0,1,1.6.6,7.2,7.2,0,0,1,1.5,2.7c.4,1.1.8,2.7.1,3.7a1.57,1.57,0,0,1-1.9.6c-1.3-.9,1.2-2.1,1.9-2.2,1.2-.2,2.5-.5,3.2.7a17.8,17.8,0,0,1,1.8,7.2,21.2,21.2,0,0,1-.7,7.1,19.57,19.57,0,0,1-1.2,3.4c-.3.7-1.1,2.7-1.7,1.3a6.27,6.27,0,0,1-.6-3.8,5.1,5.1,0,0,1,2.2-2.6c2.1-1.5,4.5-2.7,6.7-4.1,1.2-.8.1-2.7-1.1-1.9l-5,3a14.08,14.08,0,0,0-3.7,2.7c-2,2.3-1.8,5.8-.2,8.4a2.19,2.19,0,0,0,2.9,1c1.3-.6,2-2,2.6-3.2a24.28,24.28,0,0,0,2-9.6,22.57,22.57,0,0,0-1.9-9.6,3.73,3.73,0,0,0-3-2.4,7.87,7.87,0,0,0-4.5.8c-2.1,1.1-3.3,4.4-.8,5.8,2.1,1.2,4.8-.3,5.4-2.5.8-2.8-.7-7.2-3.2-8.7s-6,.1-5.5,3.2c0,1.3,2.2.7,2.1-.7Z"/><path class="cls-17" d="M511.8,197.6a13,13,0,0,1-1-1.5,5.23,5.23,0,0,1-.6-1.6,5,5,0,0,1-.2-1.7v-1.5c0,.1,0-.3.1-.3a1.23,1.23,0,0,0-.8-1.4,1.14,1.14,0,0,0-1.4.8,10.78,10.78,0,0,0,2.2,8.8,1.22,1.22,0,0,0,1.6,0h0a1.35,1.35,0,0,0,.1-1.6Z"/><path class="cls-9" d="M290,451.6c.5,14-8.5,28.9-29.1,22.2-21.8-7.1,1.4-42.6,21.2-33.1C287.6,443.3,289.9,447.3,290,451.6Z"/><g class="cls-18"><path class="cls-9" d="M28.6,493.2c36.5.2,73.1-.7,109.6-2.8,10.2-.6,20.5-1.2,30.7-2a3.2,3.2,0,1,0,0-6.4c-36.5,2.7-73,4.2-109.6,4.7-10.3.1-20.5.1-30.8.1-4.1,0-4.1,6.4.1,6.4Z"/><path class="cls-9" d="M25.1,471.3c38.3.7,76.5,1,114.8,1.1H172c4.1,0,4.2-6.5,0-6.4q-57.45.15-114.8-.6c-10.7-.1-21.4-.3-32.1-.5-4.2-.1-4.2,6.3,0,6.4Z"/><path class="cls-9" d="M15.8,451.7q62.85,1.95,125.6-.6c11.7-.5,23.5-1.1,35.2-1.8,4.1-.3,4.1-6.7,0-6.4q-62.7,3.9-125.6,3.2c-11.8-.1-23.5-.4-35.3-.8-4.1-.1-4.1,6.3.1,6.4Z"/><path class="cls-9" d="M12,429.6q39,1,78.1-.6c4.1-.2,4.2-6.6,0-6.4q-39,1.5-78.1.6C7.8,423.1,7.8,429.5,12,429.6Z"/><path class="cls-9" d="M17.6,406.5H85.5c4.1,0,4.2-6.5,0-6.5H17.6C13.5,400.1,13.5,406.5,17.6,406.5Z"/><path class="cls-9" d="M25.1,528c38.3.7,76.5,1,114.8,1.1H172c4.1,0,4.2-6.5,0-6.4q-57.45.15-114.8-.6c-10.7-.1-21.4-.3-32.1-.5-4.2-.1-4.2,6.3,0,6.4Z"/><path class="cls-9" d="M15.8,509.7q62.85,1.95,125.6-.6c11.7-.5,23.5-1.1,35.2-1.8,4.1-.3,4.1-6.7,0-6.4q-62.7,3.9-125.6,3.2c-11.8-.1-23.5-.4-35.3-.8-4.1-.2-4.1,6.2.1,6.4Z"/></g><path class="cls-4" d="M440.9,250.8c-4.8,4.9,3.7,12.1,8.6,7.7C455.6,253.2,446.2,245.4,440.9,250.8Z"/><path class="cls-4" d="M230.2,181.1a12.68,12.68,0,0,0,4.9,13.5,1.1,1.1,0,1,0,1.1-1.9,10.42,10.42,0,0,1-3.9-10.9,1.13,1.13,0,0,0-.9-1.3.93.93,0,0,0-1.2.6Z"/></g></g></g></g><g id="smoke"><path class="cls-17" d="M262.9,283.9c-1.8,2-2.6,4.7-4,7.1s-2.6,5.7-.8,7.8c1.6,1.8,4.5,1.5,6.6,2.7a6.84,6.84,0,0,1,3.2,6.8,14.39,14.39,0,0,1-3.2,7.1,29.21,29.21,0,0,1-14,9.7l7.4-12.6a2.27,2.27,0,0,0,.5-1.8c-.2-.8-1.2-1.2-2-1.5l-8.5-2.5c-1.6-.5-3.5-1.2-3.8-2.9a4.49,4.49,0,0,1,.4-2.3,36.65,36.65,0,0,1,16.1-18.4S266.9,279.4,262.9,283.9Z"/><path class="cls-17" d="M281.9,275.1a69.08,69.08,0,0,0-5.4,8.6c-1.1,2.1-3.4,5.6-2.4,8.1,1.4,3.4,6.9,1.6,8.1,4.9,1.8,5-1.2,9.7-4.2,13.5a80.89,80.89,0,0,1-6.7,7.6,39.2,39.2,0,0,1-3.7,3.4c-.4.3-3.8,2.1-3.7,1.8.4-3.8,4.9-7.5,7-10.5s4.3-5.9,6.1-9c1.6-2.8-2.8-4.3-4.6-5.1-3.8-1.7-6.6-2.6-4.3-7.4a76.61,76.61,0,0,1,7.3-12.3c2.4-3.2,5.8-8.6,10-9.8a17.12,17.12,0,0,1-2.9,5.5Z"/></g><g id="dot1"><path class="cls-17" d="M49.3,228.9c-3.5,3.3-2.6,10.2,3.3,8.6C61.4,235,55.3,223.3,49.3,228.9Z"/></g><g id="dot2"><path class="cls-17" d="M124,84c-2.3,2.2-1.7,6.8,2.2,5.7C132,88.1,127.9,80.3,124,84Z"/></g><g id="star2"><path class="cls-17" d="M337.7,138.2a99,99,0,0,1,5-13.8c.3-.7,1-1.5,1.6-1.2s.6,1.2.4,1.8c-1,4.2-2,8.5-3,12.7a23.09,23.09,0,0,1,11.6,1.8.55.55,0,0,1,.3.8c0,.1-.1.2-.2.3a12.91,12.91,0,0,1-7.4,2,3.21,3.21,0,0,0-2.7.5,3.29,3.29,0,0,0-.7,1.6,43,43,0,0,1-4,10.5.78.78,0,0,1-1,.3.55.55,0,0,1-.3-.5c-.7-3.3.7-7,.6-10.5a2,2,0,0,0-.3-1.1,1.61,1.61,0,0,0-1.3-.6,68.5,68.5,0,0,1-10.9-3.3c-1-.4-2.1-1.4-1.4-2.2a1.88,1.88,0,0,1,.9-.4,18.85,18.85,0,0,1,6.7,0Z"/></g><g id="dot3"><path class="cls-17" d="M370.9,96.4c-3.6,3.4-2.7,10.6,3.5,8.9C383.5,102.7,377.1,90.6,370.9,96.4Z"/></g><g id="star3"><path class="cls-17" d="M387.9,274a69.52,69.52,0,0,1-2.7-10.2c-.1-.6,0-1.3.5-1.4s.8.5,1,.9c1.1,2.9,2.3,5.8,3.4,8.8a18,18,0,0,1,7.6-3.7c.2,0,.5.1.5.4v.3a9.17,9.17,0,0,1-3.6,4.2c-.6.4-1.3.7-1.4,1.4a3,3,0,0,0,.2,1.3,30.39,30.39,0,0,1,1.9,7.9.63.63,0,0,1-.5.6.6.6,0,0,1-.4-.1c-1.8-1.6-2.4-4.5-3.9-6.5-.1-.2-.4-.4-.6-.6a1.16,1.16,0,0,0-1,.2,50.68,50.68,0,0,1-7.8,2.5c-.7.2-1.8,0-1.7-.7a2.09,2.09,0,0,1,.4-.6,10.9,10.9,0,0,1,4-2.7Z"/></g><g id="dot6"><path class="cls-17" d="M578,304.3c-2.3,2.2-1.7,6.8,2.2,5.7C586,308.4,582,300.6,578,304.3Z"/></g><g id="star1"><path class="cls-17" d="M31,263.1a81,81,0,0,1-1.8-9.6c0-.5.1-1.2.5-1.2s.7.5.9.9c.9,2.8,1.7,5.6,2.5,8.3a17.8,17.8,0,0,1,7.3-2.9.55.55,0,0,1,.5.3.37.37,0,0,1-.1.3,7.85,7.85,0,0,1-3.6,3.6,2.36,2.36,0,0,0-1.4,1.2,2.46,2.46,0,0,0,.1,1.2,30.91,30.91,0,0,1,1.2,7.4.47.47,0,0,1-.5.5c-.1,0-.3-.1-.3-.2-1.5-1.6-1.9-4.3-3.1-6.3a2.65,2.65,0,0,0-.5-.6,1.18,1.18,0,0,0-1,.1,47,47,0,0,1-7.4,1.8c-.7.1-1.7-.2-1.5-.8a1,1,0,0,1,.4-.5,10.69,10.69,0,0,1,3.9-2.2Z"/></g></svg>
