<svg xmlns="http://www.w3.org/2000/svg" xmlns:xlink="http://www.w3.org/1999/xlink" viewBox="0 0 576.11 597.08"><defs>
  <style>
    .cls-1{fill:none;}.cls-2{fill:#f7bc28;}.cls-3{clip-path:url(#clip-path);}.cls-4{fill:#153a23;}.cls-5{fill:#fac7b7;}.cls-6{fill:#b26d55;}.cls-7{fill:#39b55d;}.cls-8{fill:#fff;}.cls-9{fill:#f1673c;}.cls-10{fill:#010101;}.cls-11{fill:#c05929;}
    #clip-path, #bubble {
  		animation-name: organic;
  		animation-duration: 25s;
  		animation-iteration-count: infinite;
  		animation-timing-function: linear;
  		transform-origin: center;
  	}

  	@keyframes organic {
  		0% {
  		transform:scale(.95, .95) rotate(0deg);
  		}
  		20% {
  			transform:scale(.95, .9) rotate(-15deg);
  		}
  		40% {
  			transform:scale(.9, .85) rotate(0deg);
  		}
  		60% {
  			transform:scale(.95, .9) rotate(-5deg);
  		}
  		80% {
  			transform:scale(.92, .92) rotate(10deg);
  		}
  		100% {
  			transform:scale(.95, .95) rotate(0deg);
  		}
  	}

    #star1, #star2, #star3 {
  	animation-timing-function: ease-in-out;
  	animation-iteration-count: infinite;
  	animation-direction: alternate;
  	}

  	#star1 {
      animation-name: star1;
      animation-duration: 2.75s;
  	}

  	#star2 {
      animation-name: star1;
      animation-duration: 1.5s;
  	}

  	#star3 {
      animation-name: star1;
      animation-duration: 2.5s;
  	}

  	@keyframes star1 {
      0 {
        opacity: 0;
        width: 50px;
      }
  		15% {
        opacity: .25;
      }
  		50% {
  			opacity: 1;
  		}
  		85% {
        opacity: .25;
      }
      100% {
          opacity: 0;
          width: 35px;
      }
    }

  	@keyframes star2 {
      0 {
        opacity: 1;
        width: 35px;
      }
  		50% {
  			opacity: 0;
  			width: 75px;
  		}
      100% {
          opacity: 1;
          width: 35px;
      }
    }
  </style>
  <clipPath id="clip-path"><path class="cls-1" d="M371,561.73C199.2,607.3,104.25,569,78.25,544.17-38,433.13,6.59,313.45,25.43,281.23,50.31,238.7,97,174.81,124.54,130.68,196.36,7.58,294.79,3.57,335,17,512.17,52.73,567,203.31,572.23,274.13,596.92,463.73,448.37,544.86,371,561.73Z"/></clipPath></defs>
<g id="bubble">
  <path class="cls-2" d="M371,561.73C199.14,607.3,104.19,569,78.2,544.17-38,433.13,6.53,313.45,25.38,281.23,50.25,238.7,97,174.81,124.49,130.68,196.3,7.58,294.73,3.57,335,17,512.11,52.73,566.92,203.31,572.18,274.13,596.87,463.73,448.31,544.86,371,561.73Z"/></g><g id="character"><g class="cls-3"><path class="cls-4" d="M223.18,243.16a433.48,433.48,0,0,1-82.69-2.42c-14-1.76-31.43-7.66-30.55-19.15.78-10.13,15.38-15,27.54-17.39a996.46,996.46,0,0,1,288.71-13c16.19,1.63,33.6,4.19,44.83,13.8,4.7,4,8.08,9.78,6,15.06-2.42,6.19-10.95,9.1-18.57,11.09a583,583,0,0,1-153,18.54Z"/><path class="cls-5" d="M237.85,180.25C263.71,175,290,169.75,316.29,172s53,13.21,68.47,34.61c17.06,23.67,17.62,55.48,30.81,81.5,8.08,16,21.21,31,20.32,48.81-1.29,26-30.39,40.27-55.43,47.41a640.9,640.9,0,0,1-191.12,24.36c-6.94-.17-14.11-.51-20.37-3.52C157.9,399.89,152,387,151.64,374.77s3.77-24.2,8.11-35.69a859.88,859.88,0,0,1,70-143.38"/><path class="cls-6" d="M249.56,200.61A259.83,259.83,0,0,0,236,303.66c1.19,16.82,4.25,34.12,13.25,47.76A54.77,54.77,0,0,0,301,375.58c19.5-2.41,37.35-15.59,48.14-33.68,15.77-26.44,16.46-60.28,14.34-91.85-1.9-28.07-8.18-60.23-30.84-73.12-17.82-10.13-39.33-4.41-58.64,1.55Z"/><path class="cls-5" d="M222.17,269.33c26.81.11,57.49-12.13,64.24-18.58,20.35-19.43,22.3-50,21.69-76.72l-63.63,13.18-21.84,41S222.16,269.33,222.17,269.33Z"/><path class="cls-5" d="M299,186.18s21.92,55.47,79,66.56l-9-33.28-19.53-33.28Z"/><path class="cls-7" d="M105.38,584.74c-10.92-35.16,3.65-86.85,29.47-113.09s61.19-41,96.81-50.3c43.53-11.38,90-15.49,133.37-3.72,18.15,4.92,35.5,12.54,52,21.63,25.95,14.31,50.75,33.43,63.31,60.27,14.29,30.57,10.64,48,5.48,81.33"/><path class="cls-5" d="M326.75,248a3.45,3.45,0,0,0-3.65,1.92c-.16.34-.32.67-.45,1-.43,1.13-.39,2.68.69,3.24a3.14,3.14,0,0,0,1.43.25,69.8,69.8,0,0,1,15,2,73.27,73.27,0,0,1,7.41,2.2c.61.22,2.85,1.48,3.42,1.27,1-.38.51-2.22.09-2.86a7.18,7.18,0,0,0-2.4-2l-.25-.16a44.63,44.63,0,0,0-16.29-6Z"/><path class="cls-8" d="M264.83,187.34c-19.76,1.37-25.1,18.39-32.1,34.34-7.82,17.8-21.62,36.87-31.11,53.82-9.29,16.58-18.51,33.29-25.55,51a180,180,0,0,0-8.48,26.92c-1.83,8.14-1.47,10.1-2.57,18.49-1.24,9.55-.83,20.73,8.74,22.5s26.7,1.31,36.09,2.57c1.76.24,2.53-2.46.75-2.7-13.61-1.82-36.16,4-41.56-13.46-2.48-8-.84-16.84.86-24.84,1.82-8.61,20.28-41.45,23.39-49.68,12.74-33.68,22.27-39.22,37.63-71.65,8-17,11.36-42.92,33.91-44.49,1.78-.12,1.8-2.92,0-2.8Z"/><path class="cls-8" d="M250.55,390.48c-8.69-.8-23.15-3.14-31.22-6.46-7.07-2.9-14.85-7-18.88-13.81-6.88-11.6-5.75-29.84,3.5-39.91,1.21-1.32,1.64-4.54.42-3.21-8,8.71-12.23,18.27-10.81,29.71,1,7.69.64,15.21,4.77,19.16,5.07,4.86,15.39,8.92,21.89,11.41,7.86,3,18.41,4.08,26.77,4.86,1.8.16,11-1.58,9.2-1.75Z"/><path class="cls-8" d="M221.72,310.76c-4.13,11.23-8.76,29.76-6.15,38.93,1.52,5.34,11.68,13.4,19.8,20.16,1.38,1.15,4.39,2,3,.82-7.73-6.43-16.27-13.55-19-23.67-3-11.43.23-26.44,4.18-37.19.62-1.69-1.25-.73-1.87.95Z"/><path class="cls-8" d="M229.93,257.62c10-1.48,19.49-5.14,28.73-9.21,8.53-3.76,22.22-10.12,29-16.64S296,214.13,299,205.35c3.3-9.48,2.76-14.72,2.83-24.75,0-1.8-2-6.67-2-4.86,0,28.17-6.09,44.34-19.88,56.95-6.52,6-14.72,9.77-22.73,13.3-9,4-18.27,7.49-28.06,8.93-1.78.26-1,3,.74,2.7Z"/><path class="cls-8" d="M248.65,227.29c2.39-8.85,13.37-17.79,19.72-24.52,6.89-7.31,8.4-9.78,16.79-15.27,1.51-1,.11-3.4-1.41-2.41-9,5.87-17.68,12.64-24.9,20.6-6.42,7.08-10.5,14.6-11.05,19.2-.22,1.79-1.15,6.47,0,6.88Z"/><path class="cls-8" d="M271.61,218.66c8.8-11.16,18.77-25,17.26-34-.29-1.75-2.45-2.52-2.7-.74-1.95,14-11.14,28-19.65,38.8-1.1,1.4,1.21.93,2.32-.48Z"/><path class="cls-8" d="M384.33,253.09c-31.65-8.43-57-35.31-63.58-67.37l-1.35,1.77c20.11-1.85,37.78,10.85,49.29,26.33,13.24,17.8,18.65,39.89,25.86,60.5a268.35,268.35,0,0,0,13.39,30.85c4.95,9.93,10,20.82,8.7,32.22-2.2,19.05-21.29,29.89-37.6,35.72-25.07,9-52.28,12.91-78.83,13.15-1.8,0-6,4.24-4.17,4.22,25.4-.23,47.45-3.22,71.69-10.9,16.62-5.28,45-18.42,51.6-35.83,3.89-10.27,4.3-19.3.26-29.17-4.57-11.16-15.08-21.73-19.42-33-8.38-21.82-17-55.06-23-62.11-14-16.42-35-36.86-57.74-34.77a1.43,1.43,0,0,0-1.35,1.77c9.57,45.94,33,60.66,65.54,69.33a1.4,1.4,0,0,0,.74-2.7Z"/><path class="cls-8" d="M295.5,377.14c19.78,1.67,51.65-.19,70.55-7.17,15.3-5.66,18.72-14.06,25.45-29.34,3.78-8.58,6.38-7.76-.18-27-.58-1.7-3.5-2.29-2.57-.74,9,15.06-2.69,35.54-14.37,45.18-13.17,10.87-30.14,15.69-46.93,16.93a202.93,202.93,0,0,1-31.95-.64c-1.79-.15-1.78,2.65,0,2.8Z"/><path class="cls-8" d="M402.58,346.25c8.11-10.57,5.11-17.77,2.19-30.43-3.42-14.83-12.26-27.72-20.38-40.32-1-1.51-3.4-.11-2.42,1.41,7.7,11.95,16,24,19.68,38,3.29,12.43,4.14,22.62-2.95,35.44-.87,1.57-1.34,4.28-.26,2.87Z"/><path class="cls-8" d="M346,355c12.48-3.61,23.67-19.4,28.71-31.17,6.19-14.43-1-22.95-4.47-37.94-.41-1.75-3.1-1-2.7.75,3.29,14.12,4.21,29.47-1.36,43.16-4.6,11.31-14.54,18.91-25.63,24.42a20.27,20.27,0,0,0-3.21,2.76Z"/><path class="cls-8" d="M340.67,209.14c6,1.79,10.54,6.26,14.79,10.66,4.4,4.57,14.45,16.6,18.16,21.74,7.24,10,7.15,13.79,11.5,25.35.63,1.67,3.34.94,2.7-.75A141.64,141.64,0,0,0,369,231.45c-3.84-5.16-3.6-7.41-8.1-12-4.33-4.4-10.07-9-16.11-10.83-1.73-.52-5.8,0-4.08.51Z"/><path class="cls-6" d="M241,267.66c-12,1.95-16.28,1.81-27.25,7.36-7.87,4-16.14,9.77-17.42,18.5-1.64,11.23,9.63,20.59,20.77,22.76s22.67-.28,34,.64"/><path class="cls-6" d="M360.3,249.74a66.28,66.28,0,0,1,29.95,3.91c9.52,3.59,17.6,13.22,15.87,23.25-1.86,10.78-13.31,16.8-23.63,20.42a226.94,226.94,0,0,1-29.63,8.21"/><polygon class="cls-6" points="274.77 371.13 283 414.06 308.19 414.06 317.31 358.47 274.77 371.13"/><path class="cls-7" d="M242.78,431.5a70.69,70.69,0,0,1,4.3-31,6.17,6.17,0,0,1,1.74-2.8,6.43,6.43,0,0,1,4-.9c28.27,0,54.31-2.34,82.58-2.39,3.68,0,9.69,2.24,13.13,3.55,6,2.27,10,8.2,11.58,14.39s1.23,12.71.83,19.1"/><path class="cls-9" d="M250.13,333.61a.92.92,0,0,1-1.25,0c-2.87-2.52-6.2-4.48-9.18-6.88-3.2-2.59-6.1-5.91-6.82-10-1.35-7.6,6.42-12.74,12.73-7.86a23.11,23.11,0,0,1,4.46,5,.22.22,0,0,0,.41-.14,8.12,8.12,0,0,1,1.93-6c2.39-2.86,7.44-5.29,11.28-4.58,5.41,1,5.28,7.23,3.8,11.33-1.8,4.94-6.88,9.29-10.61,12.77Z"/><path class="cls-9" d="M349.13,329a.93.93,0,0,1-1.25-.14c-2.55-2.84-5.64-5.16-8.32-7.89-2.88-2.94-5.38-6.58-5.63-10.68-.47-7.7,7.84-11.92,13.55-6.35a22.93,22.93,0,0,1,3.85,5.48.23.23,0,0,0,.43-.1,8.14,8.14,0,0,1,2.61-5.72c2.7-2.57,8-4.4,11.73-3.25,5.26,1.61,4.41,7.78,2.47,11.68-2.35,4.71-7.9,8.45-12,11.48Z"/><path class="cls-10" d="M313.85,343.65a37.71,37.71,0,0,0,20.78-21.58,2,2,0,1,0-3.78-1,33.39,33.39,0,0,1-18,18.84,2,2,0,0,0-1.37,2.41,2,2,0,0,0,2.41,1.37Z"/><path class="cls-10" d="M315.42,273.4c1.69,7.19,8.5,13.27,16.17,11.52,7.12-1.62,10.21-9.19,12.26-15.39L341,270.7l13.93,7.11c2.24,1.14,4.23-2.24,2-3.38L343,267.32a2,2,0,0,0-2.88,1.17c-1.51,4.56-3.56,10.6-8.55,12.38-5.89,2.1-11.06-3.15-12.32-8.51-.58-2.45-4.36-1.41-3.78,1Z"/><path class="cls-10" d="M338.13,278l.49.37c.26.2.06.05-.08-.07l.33.26,1.2,1,2.77,2.29c1.74,1.45,3.47,2.93,5.3,4.26a2,2,0,0,0,2.68-.71,2,2,0,0,0-.7-2.68l-.5-.36c-.26-.2-.05-.05.09.06l-.34-.26-1.2-1c-.93-.76-1.85-1.53-2.77-2.3-1.74-1.44-3.46-2.92-5.3-4.25a2,2,0,0,0-2.68.7,2,2,0,0,0,.71,2.68Z"/><path class="cls-10" d="M281.11,278.44c-1.26,5.36-6.43,10.6-12.32,8.5-5-1.77-7-7.82-8.56-12.38a2,2,0,0,0-2.87-1.17l-13.94,7.11c-2.25,1.15-.27,4.53,2,3.38l13.93-7.1-2.87-1.18c2.06,6.22,5.14,13.76,12.26,15.4,7.67,1.76,14.48-4.35,16.17-11.52.58-2.45-3.2-3.5-3.78-1Z"/><path class="cls-10" d="M260.2,280.71c-1.83,1.33-3.55,2.81-5.29,4.26l-2.77,2.29-1.2,1-.3.23c-.12.09.41-.31.05,0l-.5.37a2,2,0,0,0-.7,2.68,2,2,0,0,0,2.68.7c1.83-1.33,3.56-2.81,5.29-4.25l2.78-2.3,1.2-1,.29-.23,0,0,.49-.36a2,2,0,0,0-2-3.39Z"/><path class="cls-10" d="M373.34,263.82a28.27,28.27,0,0,1,10.82,1c3.45.87,7,2,9,5.14a6,6,0,0,1,.77,5.39,14.2,14.2,0,0,1-3.08,4.75,23.32,23.32,0,0,1-8.06,5.14c-3.5,1.46-7.14,2.58-10.62,4.12-1.64.72-.22,3.14,1.41,2.41,6.86-3,15-4.5,20-10.57,2.79-3.38,4.55-7.5,2.5-11.71-1.89-3.86-5.58-5.76-9.52-6.92a33.08,33.08,0,0,0-14-1.45c-1.78.26-1,3,.74,2.7Z"/><path class="cls-10" d="M375.83,279.92a13.57,13.57,0,0,0,3.14-1.2,19.41,19.41,0,0,0,3.82-2.35,4.93,4.93,0,0,0,2.13-3.38c.09-1.85-1.59-2.93-3.09-3.54a22.81,22.81,0,0,0-6.81-1.23,1.4,1.4,0,0,0-1.39,1.4A1.43,1.43,0,0,0,375,271l1.19.1.68.07.26,0,.33,0,.2,0,.4.06.66.12a13.59,13.59,0,0,1,1.4.34l.6.2.23.09c-.29-.11.07,0,.11,0s.35.18.51.27l.24.16c.33.19-.12-.13,0,0l.25.24c.19.17-.17-.29-.06-.08l.07.11c.18.27-.1-.32,0,0s0-.31,0,0a1,1,0,0,0,0,.17s.1-.37,0-.21a.92.92,0,0,0-.08.27c-.05.23.17-.31,0-.11,0,0-.05.09-.07.14s-.13.2-.2.31.23-.27.05-.07l-.12.14c-.08.1-.17.19-.25.28s-.47.41-.7.62c-.07.05-.19.17.08-.06l-.21.15c-.12.09-.24.18-.37.26s-.56.37-.84.54c-.55.33-1.11.63-1.68.91l-.92.43-.15.06c.42-.13.08,0,0,0l-.4.15a7.6,7.6,0,0,1-1.23.38,1.4,1.4,0,0,0-1,1.72,1.43,1.43,0,0,0,1.72,1Z"/><path class="cls-10" d="M229.59,305.94a34.78,34.78,0,0,1-14.52-1.24c-3.37-1-9.94-3.06-9-7.71.42-2.17,2-4,3.5-5.53a33.18,33.18,0,0,1,5-4.16,35,35,0,0,1,12.22-5.24c1.76-.39,1-3.09-.74-2.7-7.62,1.68-15.3,5.86-20.18,12.06-2.34,3-3.85,7.09-1.35,10.46,2.3,3.09,6.76,4.61,10.31,5.65a36.7,36.7,0,0,0,14.81,1.21c1.76-.22,1.78-3,0-2.8Z"/><path class="cls-10" d="M223.78,288a16.89,16.89,0,0,0-5.44,1.55,12.39,12.39,0,0,0-4.29,3.19,4.77,4.77,0,0,0-.58,5.2,6.47,6.47,0,0,0,3.88,3.24c2.17.68,4.48.34,6.68,0a1.41,1.41,0,0,0,1-1.72,1.44,1.44,0,0,0-1.72-1c-1.81.27-3.81.58-5.55-.13.16.06-.29-.15-.34-.18a5.39,5.39,0,0,1-.5-.33c.09.06.06,0-.07-.07l-.22-.21s-.36-.39-.27-.28a5.29,5.29,0,0,1-.32-.5,2.1,2.1,0,0,1-.13-.26c0,.11,0,.09,0-.07a3.44,3.44,0,0,1-.15-.55c0,.25,0-.28,0-.33s0-.19,0-.05c0-.1,0-.19.06-.29a1.75,1.75,0,0,1,.19-.4,3.6,3.6,0,0,1,.73-.86,11.44,11.44,0,0,1,2.11-1.52,13.36,13.36,0,0,1,5-1.66,1.44,1.44,0,0,0,1.4-1.4,1.41,1.41,0,0,0-1.4-1.4Z"/><path class="cls-11" d="M301.05,292.7c2.44,6.27,5.23,12.54,7.21,18.81a2.41,2.41,0,0,1-2.29,3.1l-9,.07A2.4,2.4,0,0,1,294.6,312l1.8-18.72A2.41,2.41,0,0,1,301.05,292.7Z"/><polygon class="cls-4" points="220.61 195.37 370.5 189.97 344.57 123.36 247.03 123.36 220.61 195.37"/><path class="cls-4" d="M250.33,398.12a570.94,570.94,0,0,1,97.14-1.84c1.79.12,1.79-2.68,0-2.8a570.94,570.94,0,0,0-97.14,1.84c-1.78.18-1.79,3,0,2.8Z"/><path class="cls-4" d="M109.26,580.26C103,576.32,99.81,568,102.4,561s10.77-11.47,18.19-10.1v-2.69c-11.24,3.75-19.79-9.43-19.68-19.23.06-5.75,2.06-11.83,6.44-15.75s10.71-5.36,16.1-3c1.63.73,3-1.69,1.41-2.42a18,18,0,0,0-18,2.18c-5.66,4.18-8.46,11.21-8.75,18.09-.51,11.8,9.79,27.27,23.19,22.79,1.2-.4,1.46-2.43,0-2.69-8.69-1.61-18,3-21.35,11.33s.3,18.46,7.87,23.18c1.53,1,2.94-1.46,1.41-2.41Z"/><path class="cls-4" d="M170.23,464.51A13.87,13.87,0,0,1,159,454.65c-1.69-5.57.64-11.25,5.2-14.69,10.15-7.64,23.5-.11,25.29,11.66l1-1.72c-4.06.74-7.46-3.27-7.67-7.07s2.93-6.65,6.31-7.7c8.66-2.66,15.18,5.21,17.09,12.81.44,1.74,3.14,1,2.7-.75-1.38-5.48-4.5-10.8-9.58-13.59a14.23,14.23,0,0,0-14.17.27c-4,2.51-6.17,7.18-4.61,11.8s5.81,7.82,10.67,6.93a1.42,1.42,0,0,0,1-1.72,20.35,20.35,0,0,0-11.76-15.42A17.85,17.85,0,0,0,162,438.08a16.18,16.18,0,0,0-5.88,17c1.71,6.16,6.9,11.27,13.33,12.14,1.76.23,2.52-2.46.74-2.7Z"/><path class="cls-4" d="M383,431.74c13.06-5.08,28.84,6.54,27.79,20.54l1.4-1.4c-3.7-.35-6.3-3.53-7.09-7-.87-3.85.8-7.55,3.58-10.19,6.95-6.6,17.3-5.35,26-4.15,1.76.24,2.52-2.45.74-2.7-10.57-1.46-23.86-2.61-30.85,7.39-5,7.08-1.72,18.58,7.65,19.46a1.42,1.42,0,0,0,1.4-1.4c1.17-15.7-16.65-28.95-31.34-23.24-1.66.65-.94,3.35.75,2.7Z"/><path class="cls-4" d="M440.29,458.8c3.74-2.05,8.17.68,10,4.07,2.57,4.69,1.09,10.66-.11,15.53a1.41,1.41,0,0,0,1.72,1.72c9.85-3,20.34,8,17,17.66-.59,1.71,2.11,2.45,2.69.75,4-11.71-8.66-24.7-20.46-21.11l1.72,1.72c1.5-6.09,3-13.54-1-19-3-4-8.37-6.26-13-3.73-1.58.86-.17,3.28,1.41,2.41Z"/><path class="cls-4" d="M492.3,515.24c5.1-.58,9.07,4,9.31,8.83.25,5.08-2.66,9.85-5.85,13.55a42,42,0,0,1-22.64,13.46c-1.52.34-1.21,2.85.37,2.74,6.37-.42,11.94,4.82,10.83,11.34a10.5,10.5,0,0,1-1.39,3.75c-.64,1-2,1.81-2.51,2.83s.08,2.82.22,3.88l.68,5.28c.23,1.76,3,1.78,2.8,0l-.48-3.7c-.13-1-.71-2.73-.48-3.7.29-1.18,1.5-2.08,2.18-3.18a13.21,13.21,0,0,0,1.76-8.94C486,555,479.86,550.6,473.49,551l.38,2.74c10.95-2.47,21.48-9.18,27.36-18.91,2.74-4.53,4.34-10.25,2.15-15.32-1.88-4.37-6.2-7.66-11.08-7.1-1.77.21-1.79,3,0,2.8Z"/><path class="cls-4" d="M470.64,500.6c4.8-1.82,11.27-3,15.64.56,3,2.43,4.86,7.64,2,10.9-1.18,1.35.79,3.34,2,2,2.87-3.3,2.7-8,.6-11.66-2.48-4.35-7.31-6.3-12.17-6.26a25.41,25.41,0,0,0-8.82,1.79c-1.67.64-.95,3.34.74,2.7Z"/><path class="cls-4" d="M246.68,427.45a39.73,39.73,0,0,1,4.2-28.42,1.4,1.4,0,0,0-2.41-1.42A42.69,42.69,0,0,0,244,428.19c.41,1.76,3.11,1,2.7-.74Z"/><path class="cls-4" d="M260.82,423.37a19.19,19.19,0,0,1,3.09-17.43,1.42,1.42,0,0,0-.51-1.92,1.44,1.44,0,0,0-1.91.51,21.81,21.81,0,0,0-3.37,19.58c.55,1.71,3.25,1,2.7-.74Z"/><path class="cls-4" d="M279.17,427.88c.84-5-.11-10.4-.8-15.34s-1.32-10.4-3.25-15.08c-.68-1.65-3.39-.93-2.7.74,1.84,4.46,2.46,9.6,3.14,14.34.42,2.85.75,5.71.93,8.59a26.25,26.25,0,0,1,0,6c-.29,1.76,2.4,2.52,2.7.74Z"/><path class="cls-4" d="M288.89,403.56a75.55,75.55,0,0,1-.77,18.94c-.3,1.76,2.4,2.52,2.7.74a78.61,78.61,0,0,0,.87-19.68c-.15-1.78-2.95-1.79-2.8,0Z"/><path class="cls-4" d="M305.76,423.08a37,37,0,0,0,1.6-14.57,34.37,34.37,0,0,0-3.54-14.12c-.85-1.59-3.27-.18-2.41,1.41,2.13,4,2.92,8.66,3.18,13.12a34.62,34.62,0,0,1-1.53,13.42c-.6,1.7,2.1,2.43,2.7.74Z"/><path class="cls-4" d="M313.6,401.29a31.63,31.63,0,0,1,3.83,22.16c-.35,1.76,2.35,2.51,2.7.74A34.66,34.66,0,0,0,316,399.88a1.4,1.4,0,0,0-2.42,1.41Z"/><path class="cls-4" d="M347.73,399.89A35.67,35.67,0,0,1,353,422.83c-.19,1.79,2.61,1.78,2.8,0a38.14,38.14,0,0,0-5.63-24.35c-1-1.52-3.38-.12-2.42,1.41Z"/><path class="cls-4" d="M337.66,423.07a22.42,22.42,0,0,1,.41-20.05c.85-1.59-1.56-3-2.41-1.41a25.35,25.35,0,0,0-.41,22.87c.78,1.62,3.19.2,2.41-1.41Z"/><path class="cls-4" d="M264.41,434.51q26.86-1.68,53.69-3.64,13.29-1,26.56-2,6.63-.51,13.27-1c3.4-.28,6.73-.6,9.67-2.46,1.51-1,.11-3.39-1.42-2.42-3.54,2.25-8.07,2.07-12.12,2.39l-12.17,1q-13,1-26,1.95-25.72,1.86-51.48,3.48c-1.78.11-1.8,2.91,0,2.79Z"/><path class="cls-4" d="M126.37,507.79c-3.88-2.14-7.67-6-7.48-10.77.16-4.09,4.67-8.39,8.84-6.49,1.13.51,2.82-.65,1.92-1.92-1.38-1.92-2.76-4.65-1.6-7,.91-1.83,3.54-2.73,5-1,.95,1.1,2.66-.08,2.34-1.36-.88-3.46-2.12-10.28,3.24-10.65,5.16-.35,7.74,5.08,9.58,9,.62,1.32,2.58.58,2.61-.71l.27-10c0-1.23-.42-4,1.07-4.56,1.69-.59,3.31,1.68,4.18,2.75,1.14,1.4,3.11-.59,2-2-2.05-2.51-6.39-5.64-9.12-2-1.25,1.65-.86,4.34-.92,6.26l-.26,9.58,2.61-.7c-2.47-5.24-6.65-11.93-13.54-10.17-6.34,1.61-5.65,9.08-4.4,14l2.34-1.36c-2.22-2.57-6.23-2.06-8.47.25-3,3.15-1.58,8.06.66,11.18l1.91-1.91c-5.27-2.4-11.25,1.26-12.73,6.65-1.77,6.46,3.25,12.52,8.55,15.44,1.58.87,3-1.54,1.41-2.41Z"/><path class="cls-4" d="M209.07,434.47a15.79,15.79,0,0,1,29.24-1.67c.81,1.61,3.22.2,2.42-1.41a18.59,18.59,0,0,0-34.36,2.34c-.6,1.7,2.11,2.43,2.7.74Z"/><path class="cls-4" d="M264.74,557.32c-2-3-3.79-6.94-1.95-10.46,1.94-3.71,5.82-3.05,8.7-.92,4.43,3.29,11.78,11.28,8,17.1l2.2-.28c-2.15-1.83-2-5-.49-7.2,1.72-2.55,4.95-3.56,7.82-4.11,4.74-.92,12.2-1.77,15.1,3.13a1.4,1.4,0,0,0,2.42-1.41c-3.92-6.63-13.92-5.76-20.28-3.95-3.55,1-6.91,3-8.31,6.59-1.22,3.06-.84,6.72,1.76,8.93a1.43,1.43,0,0,0,2.2-.28c2.53-4,1.23-8.48-1.1-12.21-2.44-3.92-6.07-8.22-10.36-10.14a7.64,7.64,0,0,0-10.12,3.34c-2.37,4.43-.59,9.37,1.95,13.28,1,1.51,3.4.11,2.42-1.41Z"/><path class="cls-4" d="M331.53,474.75a9.6,9.6,0,0,1,13,5.54,9.35,9.35,0,0,1,.5,3.82c-.07.94-.48,3.1-1.67,3.27-1.52.21-.94-1.84-.31-2.44a5.86,5.86,0,0,1,3.59-1.25c5-.35,9.54,3.19,11.77,7.41,2.82,5.31,2.55,11.75,1.7,17.52-.26,1.76,2.43,2.52,2.69.75,1-6.56,1.24-13.65-2-19.69-2.58-4.86-7.79-8.79-13.44-8.82-2.52,0-5.61.74-7.07,3-1.22,1.86-1,4.75,1.1,5.93,2.38,1.37,4.79-.57,5.75-2.71a10.94,10.94,0,0,0-.23-8.26,12.34,12.34,0,0,0-16.11-6.75c-1.65.68-.93,3.39.74,2.7Z"/><path class="cls-4" d="M226.47,474.13c6.87,1.58,14.24-4.27,14.07-11.37,0-1.8-2.84-1.81-2.8,0,.13,5.24-5.45,9.84-10.52,8.67-1.76-.41-2.5,2.29-.75,2.7Z"/><path class="cls-4" d="M147.14,526.34c-3.22-2.52-8.72-.91-9.51,3.33-.86,4.61,4.61,8.11,8.58,6l-2.06-.83c.45,1.23-1.28,2.43-2,3.26a6.09,6.09,0,0,0-1.78,4.63c.35,3.64,3.87,6.32,6.8,8a1.4,1.4,0,0,0,1.41-2.41c-2.06-1.18-6.32-3.92-5.31-6.88.45-1.33,1.79-2.28,2.64-3.35a4.08,4.08,0,0,0,.94-4,1.43,1.43,0,0,0-2.06-.83c-1.91,1-4.86-.9-4.42-3.12.38-1.87,3.25-3.07,4.79-1.86s3.4-.87,2-2Z"/><path class="cls-4" d="M395.75,525c-.57,5.29-.76,11,1.21,16.07s5.75,7.19,10.91,8.43c1.55.38,4.36,1.19,4.46,3.25s-2.58,2.24-3.82,3a8,8,0,0,0-3.61,5.43c-1.38,6.58,4.28,13.51,1.29,19.69-.78,1.61,1.64,3,2.42,1.41,3.2-6.63-1.75-12.62-1.15-19.33a6.22,6.22,0,0,1,2.16-4.61c1-.76,2.39-.92,3.47-1.6a4.35,4.35,0,0,0,1.66-5.53c-1-2.46-3.28-3.63-5.71-4.27-3.36-.89-6.31-1.46-8.33-4.56-3.21-4.93-2.77-11.77-2.16-17.35.19-1.78-2.61-1.77-2.8,0Z"/><path class="cls-4" d="M203.11,523.12a17.11,17.11,0,0,1-2.1,20.09,1.41,1.41,0,0,0,.28,2.19c6.61,2.8,7.49,11,7.06,17.29-.5,7.34-1.93,15.11,2.33,21.66,1,1.51,3.4.11,2.42-1.41-4.85-7.47-1.43-16.46-1.91-24.68-.35-6.07-2.45-12.72-8.49-15.27l.29,2.19a20,20,0,0,0,2.54-23.48,1.4,1.4,0,0,0-2.42,1.42Z"/></g></g>
  <g id="star1"><path class="cls-8" d="M89.74,411A110.22,110.22,0,0,1,95,396.27c.35-.73,1-1.58,1.76-1.26s.62,1.25.45,2q-1.6,6.75-3.22,13.49a25.82,25.82,0,0,1,12.34,1.88.66.66,0,0,1,.08,1.15,13.33,13.33,0,0,1-7.87,2.09c-1,0-2.13-.17-2.85.51a3.43,3.43,0,0,0-.79,1.75A45.69,45.69,0,0,1,90.66,429a.76.76,0,0,1-1.4-.22c-.79-3.49.78-7.42.69-11.15a2,2,0,0,0-.3-1.19,2.21,2.21,0,0,0-1.38-.67,79.56,79.56,0,0,1-11.6-3.53c-1-.39-2.22-1.52-1.47-2.32a1.6,1.6,0,0,1,.9-.39,17.82,17.82,0,0,1,7.09,0Z"/></g><g id="dot1"><path class="cls-8" d="M57.05,445.61c-3.8,3.6-2.87,11.22,3.65,9.39C70.34,452.3,63.57,439.44,57.05,445.61Z"/></g><g id="dot2"><path class="cls-8" d="M67.3,284.67c-5.22,4.93-3.93,15.38,5,12.87C85.5,293.84,76.23,276.22,67.3,284.67Z"/></g>
  <g id="star2"><path class="cls-8" d="M195.81,105.31a108.47,108.47,0,0,1,.31-15.61c.09-.79.46-1.82,1.26-1.75s1,1,1.06,1.72q.65,6.9,1.26,13.82a25.73,25.73,0,0,1,12.3-2.17.65.65,0,0,1,.44,1.06,13.38,13.38,0,0,1-6.78,4.5c-1,.27-2.08.51-2.55,1.4a3.42,3.42,0,0,0-.18,1.91,45.64,45.64,0,0,1-.47,12,.76.76,0,0,1-1.4.24c-1.86-3.06-1.63-7.28-2.9-10.78a2.16,2.16,0,0,0-.67-1,2.34,2.34,0,0,0-1.53-.19,80.42,80.42,0,0,1-12.12.37c-1.09,0-2.58-.74-2.13-1.72a1.64,1.64,0,0,1,.73-.67,18,18,0,0,1,6.73-2.23Z"/></g><g id="dot3"><path class="cls-8" d="M179.26,136.74c-2.89,2.73-2.18,8.52,2.78,7.13C189.36,141.82,184.22,132.05,179.26,136.74Z"/></g><g id="dot4"><path class="cls-8" d="M401.81,89.27c-5.44,5.15-4.1,16,5.22,13.44C420.81,98.84,411.14,80.45,401.81,89.27Z"/></g><g id="dot5"><path class="cls-8" d="M425.77,112.73c-2.89,2.73-2.17,8.52,2.78,7.13C435.87,117.81,430.73,108,425.77,112.73Z"/><path class="cls-8" d="M119.66,303.78c-2.89,2.73-2.18,8.52,2.77,7.13C129.75,308.86,124.61,299.09,119.66,303.78Z"/></g>
  <g id="star3"><path class="cls-8" d="M504.13,306.64a84.59,84.59,0,0,1,.87-12c.1-.61.43-1.39,1-1.3s.72.8.75,1.36c.14,3.57.28,7.13.41,10.7a19.74,19.74,0,0,1,9.56-1.17.5.5,0,0,1,.3.83,10.27,10.27,0,0,1-5.4,3.19c-.75.17-1.62.32-2,1a2.58,2.58,0,0,0-.21,1.46,35.54,35.54,0,0,1-.85,9.2.58.58,0,0,1-1.08.13c-1.32-2.43-1-5.68-1.81-8.43a1.69,1.69,0,0,0-.47-.82,1.79,1.79,0,0,0-1.17-.21,62.24,62.24,0,0,1-9.36-.2c-.83-.08-2-.67-1.57-1.42a1.34,1.34,0,0,1,.59-.48A13.72,13.72,0,0,1,499,307Z"/></g><g id="dot6"><path class="cls-8" d="M533.27,274.53c-3.8,3.6-2.87,11.22,3.65,9.39C546.55,281.22,539.79,268.37,533.27,274.53Z"/><path class="cls-8" d="M276.73,36.25c-3.8,3.6-2.87,11.22,3.65,9.39C290,42.94,283.25,30.09,276.73,36.25Z"/></g><g id="Layer_12" data-name="Layer 12"><path class="cls-8" d="M500.3,439.09c-6.13,5.8-4.62,18.07,5.88,15.13C521.7,449.86,510.8,429.16,500.3,439.09Z"/></g></svg>
